<svg width="700" height="481" viewBox="0 0 700 481" fill="none" xmlns="http://www.w3.org/2000/svg">
<path d="M532.56 429.235C565.65 367.975 635.78 227.696 605.82 182.001C576.67 137.47 532.98 165.445 478.49 138.22C424 110.996 454.56 19.6344 358.75 18.3261C264.67 17.037 252.27 167.128 215.28 181.953C178.29 196.777 90.78 136.921 71.93 223.184C57.26 290.274 131.53 388.821 165.23 429.273L532.56 429.235Z" fill="#FFA500"/>
<path opacity="0.7" d="M532.56 429.235C565.65 367.975 635.78 227.696 605.82 182.001C576.67 137.47 532.98 165.445 478.49 138.22C424 110.996 454.56 19.6344 358.75 18.3261C264.67 17.037 252.27 167.128 215.28 181.953C178.29 196.777 90.78 136.921 71.93 223.184C57.26 290.274 131.53 388.821 165.23 429.273L532.56 429.235Z" fill="white"/>
<path d="M596.77 429.235H85.8598C79.3298 432.054 73.9498 435.584 78.7098 438.403C88.1798 444.021 151.13 434.651 136.85 457.123C122.57 479.596 279.59 452.13 296.46 452.756C313.33 453.381 325.66 465.983 351.61 465.983C377.56 465.983 379.69 449.841 396.47 449.841C413.25 449.841 532.47 469.408 583.17 449.841C605.54 441.212 604.7 434.285 596.77 429.235Z" fill="#858585"/>
<path opacity="0.6" d="M596.77 429.235H85.8598C79.3298 432.054 73.9498 435.584 78.7098 438.403C88.1798 444.021 151.13 434.651 136.85 457.123C122.57 479.596 279.59 452.13 296.46 452.756C313.33 453.381 325.66 465.983 351.61 465.983C377.56 465.983 379.69 449.841 396.47 449.841C413.25 449.841 532.47 469.408 583.17 449.841C605.54 441.212 604.7 434.285 596.77 429.235Z" fill="white"/>
<path d="M71.96 429.235H600.47" stroke="#263238" stroke-width="0.75" stroke-linecap="round" stroke-linejoin="round"/>
<path d="M426.82 81.4912H458.29" stroke="#263238" stroke-width="0.75" stroke-linecap="round" stroke-linejoin="round"/>
<path d="M421.09 81.4912H423.9" stroke="#263238" stroke-width="0.75" stroke-linecap="round" stroke-linejoin="round"/>
<path d="M416.62 35.7285C410.396 35.8513 404.47 38.3159 400.114 42.5936C395.757 46.8713 393.317 52.6212 393.317 58.6097C393.317 64.5982 395.757 70.3481 400.114 74.6258C404.47 78.9035 410.396 81.3681 416.62 81.4909" stroke="#263238" stroke-width="0.75" stroke-linecap="round" stroke-linejoin="round"/>
<path d="M445.61 16.2769C439.807 16.2724 434.202 18.3107 429.853 22.0072C425.504 25.7038 422.71 30.8032 422 36.3442" stroke="#263238" stroke-width="0.75" stroke-linecap="round" stroke-linejoin="round"/>
<path d="M468 81.4911C473.57 81.6556 478.979 79.685 483.039 76.0128C487.098 72.3405 489.474 67.2675 489.645 61.9096C489.816 56.5517 487.768 51.3478 483.951 47.4428C480.133 43.5379 474.86 41.2516 469.29 41.0871C469.35 40.4521 469.4 39.8076 469.4 39.1631C469.398 34.0638 467.625 29.1113 464.365 25.0909C461.104 21.0705 456.541 18.2124 451.4 16.9697" stroke="#263238" stroke-width="0.75" stroke-linecap="round" stroke-linejoin="round"/>
<path d="M509.38 110.178C509.912 109.449 510.377 108.676 510.77 107.869L513.88 107.917C514.346 106.743 514.681 105.524 514.88 104.281L512.16 102.828C512.16 102.395 512.23 101.943 512.23 101.501C512.23 101.058 512.23 100.606 512.16 100.164L514.88 98.7109C514.681 97.4682 514.346 96.2492 513.88 95.0745L510.77 95.1323C510.38 94.321 509.914 93.5451 509.38 92.8138L510.98 90.2549C510.158 89.2777 509.233 88.3847 508.22 87.5902L505.55 89.1294C504.793 88.6153 503.99 88.1678 503.15 87.7922L503.2 84.8004C501.981 84.3561 500.718 84.0338 499.43 83.8384L497.92 86.455" stroke="#263238" stroke-width="0.75" stroke-linecap="round" stroke-linejoin="round"/>
<path d="M482.86 108.937C483.11 109.37 483.38 109.774 483.67 110.178L482.08 112.737C482.897 113.719 483.823 114.612 484.84 115.402L487.5 113.862C488.26 114.377 489.067 114.824 489.91 115.2L489.86 118.191C491.079 118.637 492.342 118.959 493.63 119.153L495.14 116.537C495.6 116.537 496.06 116.595 496.53 116.595C497 116.595 497.46 116.595 497.92 116.537L499.43 119.153C500.718 118.958 501.981 118.636 503.2 118.191L503.15 115.2C503.99 114.824 504.793 114.376 505.55 113.862L508.22 115.402C509.235 114.61 510.16 113.716 510.98 112.737" stroke="#263238" stroke-width="0.75" stroke-linecap="round" stroke-linejoin="round"/>
<path d="M480.4 95.0938H479.18C478.714 96.2685 478.378 97.4874 478.18 98.7301L480.9 100.183C480.9 100.625 480.84 101.068 480.84 101.52C480.84 101.972 480.84 102.415 480.9 102.847L478.18 104.3C478.378 105.543 478.714 106.762 479.18 107.936L482.28 107.888" stroke="#263238" stroke-width="0.75" stroke-linecap="round" stroke-linejoin="round"/>
<path d="M495.14 86.4453L493.63 83.8286C492.342 84.0231 491.079 84.3455 489.86 84.7906L489.91 87.7824C489.067 88.158 488.26 88.6055 487.5 89.1196L484.84 87.5804C483.825 88.3725 482.9 89.2657 482.08 90.2452L483.67 92.8041C483.139 93.5376 482.674 94.3132 482.28 95.1225" stroke="#263238" stroke-width="0.75" stroke-linecap="round" stroke-linejoin="round"/>
<path d="M494.49 111.034C492.071 110.52 489.931 109.169 488.478 107.238C487.024 105.308 486.357 102.931 486.604 100.559C486.851 98.187 487.993 95.9845 489.815 94.3689C491.638 92.7534 494.013 91.8371 496.49 91.7939" stroke="#263238" stroke-width="0.75" stroke-linecap="round" stroke-linejoin="round"/>
<path d="M506.37 103.781C505.837 105.905 504.576 107.795 502.792 109.147C501.007 110.499 498.802 111.235 496.53 111.236" stroke="#263238" stroke-width="0.75" stroke-linecap="round" stroke-linejoin="round"/>
<path d="M506.61 102.347C506.61 102.578 506.56 102.799 506.52 103.03" stroke="#263238" stroke-width="0.75" stroke-linecap="round" stroke-linejoin="round"/>
<path d="M500.22 92.4292C502.115 93.1446 503.742 94.3927 504.889 96.0109C506.036 97.6291 506.65 99.5423 506.65 101.501" stroke="#263238" stroke-width="0.75" stroke-linecap="round" stroke-linejoin="round"/>
<path d="M523.77 80.635C524.067 80.2321 524.325 79.8038 524.54 79.3555H526.26C526.524 78.7073 526.712 78.033 526.82 77.3449L525.32 76.5465C525.32 76.2963 525.32 76.0558 525.32 75.8057C525.32 75.5556 525.32 75.3055 525.32 75.065L526.82 74.2665C526.713 73.5782 526.525 72.9037 526.26 72.2559H524.54C524.325 71.8076 524.067 71.3793 523.77 70.9765L524.66 69.5527C524.202 69.0152 523.689 68.5222 523.13 68.0808L521.65 68.937C521.233 68.6496 520.787 68.4016 520.32 68.1963V66.5416C519.647 66.2869 518.946 66.1062 518.23 66.0029L517.4 67.4459" stroke="#263238" stroke-width="0.75" stroke-linecap="round" stroke-linejoin="round"/>
<path d="M509.1 79.9517C509.24 80.1825 509.39 80.4134 509.55 80.6347L508.67 82.0584C509.12 82.5973 509.63 83.0876 510.19 83.5207L511.67 82.6741C512.091 82.9562 512.536 83.204 513 83.4149V85.0695C513.674 85.323 514.375 85.5037 515.09 85.6082L515.92 84.1556C516.176 84.17 516.433 84.17 516.69 84.1556C516.946 84.1702 517.203 84.1702 517.46 84.1556L518.29 85.6082C519.005 85.505 519.707 85.3243 520.38 85.0695V83.4149C520.845 83.2062 521.29 82.9583 521.71 82.6741L523.19 83.5207C523.751 83.0852 524.264 82.5952 524.72 82.0584" stroke="#263238" stroke-width="0.75" stroke-linecap="round" stroke-linejoin="round"/>
<path d="M507.74 72.2944H507.06C506.795 72.9422 506.607 73.6167 506.5 74.305L508.01 75.1035C507.995 75.3502 507.995 75.5975 508.01 75.8442C507.995 76.0909 507.995 76.3383 508.01 76.585L506.5 77.3834C506.609 78.0715 506.796 78.7458 507.06 79.394H508.78" stroke="#263238" stroke-width="0.75" stroke-linecap="round" stroke-linejoin="round"/>
<path d="M515.89 67.5035L515.06 66.0605C514.345 66.165 513.644 66.3457 512.97 66.5993L513 68.302C512.534 68.5092 512.089 68.7571 511.67 69.0427L510.19 68.1866C509.632 68.6255 509.123 69.1188 508.67 69.6584L509.55 71.0822C509.257 71.4873 508.999 71.9153 508.78 72.3616" stroke="#263238" stroke-width="0.75" stroke-linecap="round" stroke-linejoin="round"/>
<path d="M245.78 80.6157H268.85" stroke="#263238" stroke-width="0.75" stroke-linecap="round" stroke-linejoin="round"/>
<path d="M241.58 80.6157H243.64" stroke="#263238" stroke-width="0.75" stroke-linecap="round" stroke-linejoin="round"/>
<path d="M238.3 47.0801C233.677 47.0801 229.244 48.8467 225.975 51.9912C222.706 55.1358 220.87 59.4007 220.87 63.8477C220.87 68.2948 222.706 72.5597 225.975 75.7043C229.244 78.8488 233.677 80.6154 238.3 80.6154" stroke="#263238" stroke-width="0.75" stroke-linecap="round" stroke-linejoin="round"/>
<path d="M259.56 32.8232C255.309 32.8251 251.205 34.3213 248.021 37.0302C244.837 39.7391 242.791 43.474 242.27 47.5322" stroke="#263238" stroke-width="0.75" stroke-linecap="round" stroke-linejoin="round"/>
<path d="M276 80.6156C280.042 80.6812 283.949 79.2151 286.877 76.5338C289.805 73.8525 291.52 70.171 291.652 66.284C291.783 62.397 290.32 58.6163 287.579 55.7578C284.838 52.8993 281.038 51.1923 277 51.0053C277 50.5339 277.08 50.0433 277.08 49.5911C277.077 45.8571 275.78 42.2306 273.395 39.2846C271.01 36.3386 267.673 34.2412 263.91 33.3237" stroke="#263238" stroke-width="0.75" stroke-linecap="round" stroke-linejoin="round"/>
<path d="M217.4 110.736C217.974 109.962 218.47 109.138 218.88 108.273L222.19 108.331C222.689 107.088 223.051 105.798 223.27 104.483L220.37 102.934C220.419 102.464 220.442 101.992 220.44 101.52C220.442 101.044 220.419 100.569 220.37 100.096L223.27 98.5473C223.05 97.232 222.688 95.9424 222.19 94.6993H218.88C218.467 93.836 217.972 93.0115 217.4 92.2366L219.1 89.5141C218.225 88.4723 217.24 87.5212 216.16 86.6762L213.33 88.3213C212.525 87.7712 211.668 87.2946 210.77 86.8975V83.7133C209.478 83.2341 208.137 82.8859 206.77 82.6743L205.16 85.4641" stroke="#263238" stroke-width="0.75" stroke-linecap="round" stroke-linejoin="round"/>
<path d="M189.17 109.418C189.44 109.87 189.73 110.313 190.04 110.736L188.34 113.468C189.212 114.509 190.198 115.457 191.28 116.296L194.12 114.661C194.929 115.206 195.785 115.682 196.68 116.085L196.62 119.269C197.911 119.75 199.252 120.095 200.62 120.298L202.22 117.518C202.71 117.518 203.22 117.585 203.7 117.585C204.18 117.585 204.7 117.585 205.18 117.518L206.79 120.298C208.158 120.094 209.499 119.749 210.79 119.269V116.085C211.683 115.68 212.54 115.204 213.35 114.661L216.18 116.296C217.252 115.471 218.231 114.539 219.1 113.516" stroke="#263238" stroke-width="0.75" stroke-linecap="round" stroke-linejoin="round"/>
<path d="M186.56 94.6895H185.25C184.75 95.9314 184.392 97.2215 184.18 98.5375L187.07 100.086C187.07 100.558 187 101.048 187 101.51C187 101.972 187 102.472 187.07 102.924L184.18 104.473C184.391 105.789 184.75 107.079 185.25 108.321L188.56 108.263" stroke="#263238" stroke-width="0.75" stroke-linecap="round" stroke-linejoin="round"/>
<path d="M202.24 85.4832L200.64 82.6934C199.273 82.9044 197.932 83.2527 196.64 83.7323L196.7 86.9165C195.802 87.3115 194.945 87.7883 194.14 88.3403L191.3 86.6953C190.22 87.5402 189.235 88.4914 188.36 89.5332L190 92.2556C189.436 93.0351 188.941 93.8589 188.52 94.7184" stroke="#263238" stroke-width="0.75" stroke-linecap="round" stroke-linejoin="round"/>
<path d="M201.55 111.65C198.944 111.124 196.633 109.689 195.062 107.621C193.491 105.553 192.77 102.999 193.04 100.451C193.309 97.9029 194.549 95.5408 196.521 93.8199C198.493 92.099 201.057 91.1409 203.72 91.1304" stroke="#263238" stroke-width="0.75" stroke-linecap="round" stroke-linejoin="round"/>
<path d="M214.2 103.896C213.63 106.157 212.288 108.169 210.387 109.609C208.487 111.048 206.138 111.831 203.72 111.832" stroke="#263238" stroke-width="0.75" stroke-linecap="round" stroke-linejoin="round"/>
<path d="M214.46 102.405C214.46 102.645 214.4 102.886 214.36 103.126" stroke="#263238" stroke-width="0.75" stroke-linecap="round" stroke-linejoin="round"/>
<path d="M207.65 91.8423C209.663 92.6003 211.392 93.9229 212.614 95.6384C213.836 97.3539 214.493 99.383 214.5 101.462" stroke="#263238" stroke-width="0.75" stroke-linecap="round" stroke-linejoin="round"/>
<path d="M176.19 100.606C176.616 100.023 176.987 99.4046 177.3 98.7588H179.79C180.163 97.8262 180.434 96.859 180.6 95.8728L178.42 94.7088C178.42 94.3625 178.47 94.0065 178.47 93.641C178.47 93.2754 178.47 92.9291 178.42 92.5731L180.6 91.3899C180.433 90.4038 180.162 89.4367 179.79 88.5039H177.3C176.989 87.8569 176.618 87.2387 176.19 86.6568L177.47 84.6559C176.813 83.8777 176.072 83.1683 175.26 82.5395L173.13 83.7612C172.517 83.3684 171.871 83.0242 171.2 82.7319V80.3461C170.232 79.984 169.226 79.7227 168.2 79.5669L167 81.6256" stroke="#263238" stroke-width="0.75" stroke-linecap="round" stroke-linejoin="round"/>
<path d="M155 99.6152C155.2 99.9519 155.42 100.289 155.65 100.577L154.37 102.626C155.03 103.405 155.77 104.118 156.58 104.752L158.71 103.521C159.315 103.932 159.958 104.289 160.63 104.589V106.984C161.599 107.346 162.604 107.607 163.63 107.763L164.84 105.666C165.209 105.705 165.579 105.724 165.95 105.724C166.321 105.724 166.691 105.705 167.06 105.666L168.27 107.763C169.296 107.608 170.302 107.346 171.27 106.984V104.589C171.947 104.292 172.593 103.934 173.2 103.521L175.33 104.752C176.14 104.118 176.88 103.405 177.54 102.626" stroke="#263238" stroke-width="0.75" stroke-linecap="round" stroke-linejoin="round"/>
<path d="M153 88.5039H152C151.629 89.4367 151.357 90.4038 151.19 91.3899L153.37 92.5539C153.37 92.9099 153.32 93.2658 153.32 93.6217C153.32 93.9777 153.32 94.3433 153.37 94.6896L151.19 95.8536C151.356 96.8398 151.628 97.807 152 98.7396H154.49" stroke="#263238" stroke-width="0.75" stroke-linecap="round" stroke-linejoin="round"/>
<path d="M164.8 81.6256L163.59 79.5381C162.564 79.6946 161.558 79.9558 160.59 80.3173V82.7031C159.922 83.0099 159.28 83.3669 158.67 83.7709L156.54 82.5491C155.728 83.1779 154.987 83.8873 154.33 84.6655L155.61 86.7242C155.179 87.3038 154.807 87.9224 154.5 88.5713" stroke="#263238" stroke-width="0.75" stroke-linecap="round" stroke-linejoin="round"/>
<path d="M164.8 98.8744C163.465 98.6026 162.283 97.8661 161.478 96.8063C160.674 95.7465 160.306 94.4382 160.443 93.1328C160.581 91.8274 161.215 90.6171 162.224 89.7342C163.233 88.8514 164.546 88.3585 165.91 88.3501" stroke="#263238" stroke-width="0.75" stroke-linecap="round" stroke-linejoin="round"/>
<path d="M171.28 94.9111C170.989 96.0703 170.301 97.1016 169.327 97.8396C168.353 98.5775 167.15 98.9793 165.91 98.9804" stroke="#263238" stroke-width="0.75" stroke-linecap="round" stroke-linejoin="round"/>
<path d="M167.93 88.7158C168.963 89.1052 169.85 89.7855 170.474 90.6678C171.099 91.55 171.432 92.5931 171.43 93.6605" stroke="#263238" stroke-width="0.75" stroke-linecap="round" stroke-linejoin="round"/>
<path d="M349.94 393.15C349.94 393.15 317.17 374.92 321.54 369.851C325.91 364.781 340.93 378.961 340.93 378.961C340.93 378.961 311.98 344.021 317.17 340.481C322.36 336.941 337.1 360.048 337.1 360.048C337.1 360.048 319.35 321.51 326.18 320.423C333.01 319.336 343.93 353.737 343.93 353.737C343.93 353.737 339.29 329.312 343.93 328.783C348.57 328.254 351.85 367.484 351.85 367.484C351.85 367.484 351.62 349.023 355.69 349.149C359.76 349.274 361.41 390.572 349.94 393.15Z" fill="#92E3A9"/>
<path opacity="0.4" d="M349.94 393.15C349.94 393.15 317.17 374.92 321.54 369.851C325.91 364.781 340.93 378.961 340.93 378.961C340.93 378.961 311.98 344.021 317.17 340.481C322.36 336.941 337.1 360.048 337.1 360.048C337.1 360.048 319.35 321.51 326.18 320.423C333.01 319.336 343.93 353.737 343.93 353.737C343.93 353.737 339.29 329.312 343.93 328.783C348.57 328.254 351.85 367.484 351.85 367.484C351.85 367.484 351.62 349.023 355.69 349.149C359.76 349.274 361.41 390.572 349.94 393.15Z" fill="#FFA500"/>
<path d="M355.07 391.611C355.07 391.611 381.07 377.181 377.57 373.16C374.07 369.138 362.21 380.384 362.21 380.384C362.21 380.384 385.14 352.707 381.03 349.898C376.92 347.089 365.24 365.396 365.24 365.396C365.24 365.396 379.3 334.882 373.89 334.016C368.48 333.15 359.83 360.403 359.83 360.403C359.83 360.403 363.51 341.058 359.83 340.644C356.15 340.23 353.56 371.332 353.56 371.332C353.56 371.332 353.74 356.719 350.56 356.815C347.38 356.911 346 389.533 355.07 391.611Z" fill="#92E3A9"/>
<path opacity="0.2" d="M355.07 391.611C355.07 391.611 381.07 377.181 377.57 373.16C374.07 369.138 362.21 380.384 362.21 380.384C362.21 380.384 385.14 352.707 381.03 349.898C376.92 347.089 365.24 365.396 365.24 365.396C365.24 365.396 379.3 334.882 373.89 334.016C368.48 333.15 359.83 360.403 359.83 360.403C359.83 360.403 363.51 341.058 359.83 340.644C356.15 340.23 353.56 371.332 353.56 371.332C353.56 371.332 353.74 356.719 350.56 356.815C347.38 356.911 346 389.533 355.07 391.611Z" fill="#FFA500"/>
<path d="M327.09 386.724V388.648C327.093 389.454 327.364 390.237 327.865 390.883C328.365 391.529 329.068 392.004 329.87 392.236L332.87 422.53C333.056 424.45 333.978 426.234 335.457 427.536C336.936 428.838 338.865 429.563 340.87 429.572H362.81C364.814 429.561 366.742 428.835 368.22 427.533C369.698 426.232 370.621 424.449 370.81 422.53L373.81 392.236C374.614 392.007 375.32 391.533 375.823 390.887C376.326 390.241 376.598 389.455 376.6 388.648V386.724H327.09Z" fill="#263238"/>
<path d="M330.37 397.306C330.872 397.378 331.385 397.336 331.868 397.184C332.35 397.032 332.789 396.774 333.15 396.431L335.73 393.939C336.339 393.358 337.162 393.031 338.02 393.031C338.878 393.031 339.701 393.358 340.31 393.939L342.89 396.431C343.499 397.012 344.322 397.339 345.18 397.339C346.038 397.339 346.861 397.012 347.47 396.431L350.07 393.939C350.677 393.358 351.499 393.032 352.355 393.032C353.211 393.032 354.033 393.358 354.64 393.939L357.23 396.431C357.837 397.012 358.659 397.338 359.515 397.338C360.371 397.338 361.193 397.012 361.8 396.431L364.4 393.939C365.009 393.358 365.832 393.031 366.69 393.031C367.548 393.031 368.371 393.358 368.98 393.939L371.56 396.431C372.032 396.897 372.651 397.201 373.32 397.297" stroke="#7F7F7F" stroke-width="0.75" stroke-linecap="round" stroke-linejoin="round"/>
<path d="M437.73 108.985H247.29C241.905 108.985 237.54 113.184 237.54 118.364V301.568C237.54 306.748 241.905 310.947 247.29 310.947H437.73C443.115 310.947 447.48 306.748 447.48 301.568V118.364C447.48 113.184 443.115 108.985 437.73 108.985Z" fill="#263238"/>
<path opacity="0.8" d="M437.73 108.985H247.29C241.905 108.985 237.54 113.184 237.54 118.364V301.568C237.54 306.748 241.905 310.947 247.29 310.947H437.73C443.115 310.947 447.48 306.748 447.48 301.568V118.364C447.48 113.184 443.115 108.985 437.73 108.985Z" fill="white"/>
<path d="M437.73 108.985H247.29C241.905 108.985 237.54 113.184 237.54 118.364V301.568C237.54 306.748 241.905 310.947 247.29 310.947H437.73C443.115 310.947 447.48 306.748 447.48 301.568V118.364C447.48 113.184 443.115 108.985 437.73 108.985Z" stroke="#263238" stroke-width="0.75" stroke-linecap="round" stroke-linejoin="round"/>
<path d="M432.48 133.247H252.54C247.155 133.247 242.79 137.446 242.79 142.626V296.517C242.79 301.697 247.155 305.897 252.54 305.897H432.48C437.865 305.897 442.23 301.697 442.23 296.517V142.626C442.23 137.446 437.865 133.247 432.48 133.247Z" fill="#263238"/>
<path d="M432.48 133.247H252.54C247.155 133.247 242.79 137.446 242.79 142.626V296.517C242.79 301.697 247.155 305.897 252.54 305.897H432.48C437.865 305.897 442.23 301.697 442.23 296.517V142.626C442.23 137.446 437.865 133.247 432.48 133.247Z" stroke="#263238" stroke-width="0.75" stroke-linecap="round" stroke-linejoin="round"/>
<path d="M440.14 116.69H432.75C431.596 116.69 430.66 117.591 430.66 118.701V125.81C430.66 126.921 431.596 127.821 432.75 127.821H440.14C441.294 127.821 442.23 126.921 442.23 125.81V118.701C442.23 117.591 441.294 116.69 440.14 116.69Z" fill="#92E3A9"/>
<path opacity="0.3" d="M440.14 116.69H432.75C431.596 116.69 430.66 117.591 430.66 118.701V125.81C430.66 126.921 431.596 127.821 432.75 127.821H440.14C441.294 127.821 442.23 126.921 442.23 125.81V118.701C442.23 117.591 441.294 116.69 440.14 116.69Z" fill="black"/>
<path d="M440.14 116.69H432.75C431.596 116.69 430.66 117.591 430.66 118.701V125.81C430.66 126.921 431.596 127.821 432.75 127.821H440.14C441.294 127.821 442.23 126.921 442.23 125.81V118.701C442.23 117.591 441.294 116.69 440.14 116.69Z" fill="#FFA500" stroke="#263238" stroke-width="0.75" stroke-linecap="round" stroke-linejoin="round"/>
<path d="M425.9 116.69H418.51C417.356 116.69 416.42 117.591 416.42 118.701V125.81C416.42 126.921 417.356 127.821 418.51 127.821H425.9C427.054 127.821 427.99 126.921 427.99 125.81V118.701C427.99 117.591 427.054 116.69 425.9 116.69Z" fill="#FFA500" stroke="#263238" stroke-width="0.75" stroke-linecap="round" stroke-linejoin="round"/>
<path d="M411.65 116.69H404.26C403.106 116.69 402.17 117.591 402.17 118.701V125.81C402.17 126.921 403.106 127.821 404.26 127.821H411.65C412.804 127.821 413.74 126.921 413.74 125.81V118.701C413.74 117.591 412.804 116.69 411.65 116.69Z" fill="#92E3A9"/>
<path opacity="0.7" d="M411.65 116.69H404.26C403.106 116.69 402.17 117.591 402.17 118.701V125.81C402.17 126.921 403.106 127.821 404.26 127.821H411.65C412.804 127.821 413.74 126.921 413.74 125.81V118.701C413.74 117.591 412.804 116.69 411.65 116.69Z" fill="#FFA500"/>
<path d="M411.65 116.69H404.26C403.106 116.69 402.17 117.591 402.17 118.701V125.81C402.17 126.921 403.106 127.821 404.26 127.821H411.65C412.804 127.821 413.74 126.921 413.74 125.81V118.701C413.74 117.591 412.804 116.69 411.65 116.69Z" stroke="#263238" stroke-width="0.75" stroke-linecap="round" stroke-linejoin="round"/>
<path d="M243.23 124.262V119.548C243.23 118.981 243.464 118.438 243.881 118.038C244.297 117.637 244.862 117.412 245.45 117.412C246.039 117.412 246.604 117.637 247.02 118.038C247.437 118.438 247.67 118.981 247.67 119.548V124.262C247.67 124.828 247.437 125.371 247.02 125.772C246.604 126.172 246.039 126.397 245.45 126.397C244.862 126.397 244.297 126.172 243.881 125.772C243.464 125.371 243.23 124.828 243.23 124.262ZM246.23 124.348V119.461C246.23 118.817 245.93 118.576 245.47 118.576C245.01 118.576 244.71 118.817 244.71 119.461V124.348C244.71 124.993 245 125.233 245.47 125.233C245.94 125.233 246.21 124.993 246.21 124.348H246.23Z" fill="#263238"/>
<path d="M248.66 117.422H250.81C252.28 117.422 253 118.201 253 119.644V120.52C253 121.953 252.28 122.742 250.81 122.742H250.12V126.388H248.66V117.422ZM250.81 121.453C251.28 121.453 251.53 121.251 251.53 120.616V119.548C251.53 118.913 251.28 118.701 250.81 118.701H250.12V121.453H250.81Z" fill="#263238"/>
<path d="M253.8 117.422H257.8V118.701H255.27V121.077H257.27V122.357H255.27V125.108H257.8V126.388H253.8V117.422Z" fill="#263238"/>
<path d="M258.63 117.422H260.47L261.89 122.79V117.422H263.19V126.388H261.69L259.93 119.846V126.388H258.62L258.63 117.422Z" fill="#263238"/>
<path d="M266.19 124.261V123.752H267.58V124.367C267.58 125.002 267.87 125.233 268.34 125.233C268.81 125.233 269.09 125.002 269.09 124.338C269.09 123.675 268.8 123.117 267.84 122.318C266.62 121.279 266.22 120.548 266.22 119.528C266.169 119.236 266.189 118.936 266.279 118.652C266.368 118.369 266.524 118.109 266.735 117.893C266.946 117.677 267.206 117.51 267.495 117.407C267.784 117.304 268.094 117.266 268.4 117.297C269.83 117.297 270.53 118.114 270.53 119.548V119.923H269.15V119.461C269.15 118.816 268.88 118.576 268.42 118.576C267.96 118.576 267.68 118.816 267.68 119.432C267.68 120.048 267.99 120.558 268.95 121.356C270.17 122.395 270.56 123.107 270.56 124.242C270.607 124.538 270.583 124.841 270.49 125.127C270.398 125.413 270.24 125.676 270.027 125.895C269.815 126.114 269.554 126.284 269.263 126.393C268.973 126.502 268.661 126.546 268.35 126.522C266.91 126.512 266.19 125.695 266.19 124.261Z" fill="#263238"/>
<path d="M271.29 124.261V119.548C271.27 119.254 271.312 118.96 271.415 118.684C271.517 118.407 271.678 118.153 271.886 117.939C272.095 117.724 272.347 117.553 272.627 117.436C272.908 117.319 273.21 117.259 273.515 117.259C273.821 117.259 274.123 117.319 274.403 117.436C274.683 117.553 274.935 117.724 275.144 117.939C275.353 118.153 275.513 118.407 275.616 118.684C275.718 118.96 275.761 119.254 275.74 119.548V124.261C275.761 124.555 275.718 124.849 275.616 125.125C275.513 125.402 275.353 125.656 275.144 125.87C274.935 126.085 274.683 126.256 274.403 126.373C274.123 126.49 273.821 126.55 273.515 126.55C273.21 126.55 272.908 126.49 272.627 126.373C272.347 126.256 272.095 126.085 271.886 125.87C271.678 125.656 271.517 125.402 271.415 125.125C271.312 124.849 271.27 124.555 271.29 124.261ZM274.29 124.348V119.461C274.29 118.817 274 118.576 273.54 118.576C273.08 118.576 272.78 118.817 272.78 119.461V124.348C272.78 124.993 273.07 125.233 273.54 125.233C274.01 125.233 274.27 124.993 274.27 124.348H274.29Z" fill="#263238"/>
<path d="M276.67 124.262V117.422H278.14V124.368C278.14 125.002 278.42 125.233 278.88 125.233C279.34 125.233 279.63 125.002 279.63 124.368V117.422H281V124.262C281.055 124.556 281.037 124.859 280.949 125.146C280.861 125.433 280.704 125.697 280.491 125.915C280.279 126.134 280.016 126.302 279.724 126.405C279.432 126.509 279.119 126.546 278.81 126.513C277.42 126.513 276.67 125.695 276.67 124.262Z" fill="#263238"/>
<path d="M282.08 117.422H284.25C285.76 117.422 286.41 118.105 286.41 119.481V120.039C286.41 121.001 286.11 121.549 285.41 121.799C286.14 122.02 286.41 122.684 286.41 123.723V125.301C286.382 125.67 286.437 126.041 286.57 126.388H285.1C284.975 126.032 284.927 125.656 284.96 125.281V123.646C284.96 122.819 284.71 122.549 284.05 122.549H283.54V126.397H282.08V117.422ZM284.08 121.27C284.63 121.27 284.96 121.029 284.96 120.308V119.615C284.96 118.98 284.74 118.653 284.22 118.653H283.55V121.222L284.08 121.27Z" fill="#263238"/>
<path d="M287.35 124.309V119.499C287.33 119.215 287.37 118.93 287.47 118.662C287.569 118.394 287.724 118.148 287.926 117.94C288.128 117.732 288.373 117.566 288.644 117.452C288.916 117.339 289.209 117.28 289.505 117.28C289.801 117.28 290.094 117.339 290.365 117.452C290.637 117.566 290.881 117.732 291.083 117.94C291.285 118.148 291.441 118.394 291.54 118.662C291.639 118.93 291.68 119.215 291.66 119.499V120.461H290.28V119.432C290.28 118.836 289.98 118.595 289.55 118.595C289.12 118.595 288.81 118.836 288.81 119.432V124.435C288.81 125.021 289.11 125.252 289.55 125.252C289.99 125.252 290.28 125.021 290.28 124.435V123.069H291.66V124.329C291.68 124.613 291.639 124.898 291.54 125.166C291.441 125.435 291.285 125.68 291.083 125.889C290.881 126.097 290.637 126.263 290.365 126.376C290.094 126.489 289.801 126.548 289.505 126.548C289.209 126.548 288.916 126.489 288.644 126.376C288.373 126.263 288.128 126.097 287.926 125.889C287.724 125.68 287.569 125.435 287.47 125.166C287.37 124.898 287.33 124.613 287.35 124.329V124.309Z" fill="#263238"/>
<path d="M292.54 117.422H296.54V118.701H294V121.077H296V122.357H294V125.108H296.52V126.388H292.52L292.54 117.422Z" fill="#263238"/>
<path d="M503.26 368.696C503.26 368.696 504.93 379.278 504.53 382.79C503.21 394.593 496.92 406.301 494.26 429.235H596.43C596.43 429.235 597.36 387.407 593.35 368.696H503.26Z" fill="#858585" stroke="#263238" stroke-linecap="round" stroke-linejoin="round"/>
<path d="M502.67 374.709C502.67 374.709 500.15 333.573 495.21 293.977C492.21 270.226 487.29 246.695 486.21 229.11C484.72 206.108 513.92 212.496 539.34 211.476C564.76 210.457 589.45 207.282 591.21 228.658C592.97 250.033 595.4 373.352 595.4 373.352C595.4 373.352 547.19 385.762 502.67 374.709Z" fill="#FFA500"/>
<g opacity="0.2">
<path opacity="0.2" d="M629.39 300.789L638.91 297.903L631.47 297.277L635.62 290.813C634.62 292.66 632.01 293.179 629.97 292.506C627.93 291.833 626.36 290.284 624.88 288.783C618.09 281.943 611.23 275.007 606.38 266.782C601.53 258.557 598.82 248.735 601 239.538L597.53 247.85L592.24 233.641C592.738 235.892 592.619 238.229 591.893 240.422C591.167 242.615 589.86 244.588 588.1 246.147C586.69 247.359 584.95 248.36 584.21 250.062C583.902 250.832 583.836 251.672 584.02 252.477C597.3 320.779 554.12 321.174 539.02 317.412C525.45 314.045 513.02 297.604 512.51 284.3C512.505 283.919 512.605 283.544 512.799 283.212C512.992 282.879 513.273 282.602 513.614 282.407C513.954 282.212 514.342 282.107 514.737 282.101C515.133 282.096 515.524 282.191 515.87 282.376C541.38 295.931 563.26 299.394 555.67 293.785C542.16 291.005 506.19 276.816 500.19 245.887C500.083 245.333 499.859 244.805 499.533 244.336C499.207 243.867 498.785 243.467 498.293 243.16C497.8 242.853 497.248 242.646 496.67 242.551C496.092 242.455 495.5 242.475 494.93 242.607C488.907 256.15 479.14 267.846 466.69 276.421L469 281.674C466.24 283.906 461.18 281.857 460.92 278.393L458.05 292.573L451.05 292.362L451.12 292.419C451.553 292.851 451.893 293.361 452.12 293.92L452.55 294.209C452.86 294.43 453.13 294.642 453.4 294.853C455.623 295.386 457.939 295.457 460.193 295.06C462.447 294.664 464.587 293.809 466.47 292.554C471.75 289.1 475.09 283.588 478.38 278.326C481.67 273.064 485.38 267.657 490.92 264.694C497.64 295.068 504.363 325.435 511.09 355.796C512.17 360.692 513.33 365.753 516.39 369.812C522.74 378.22 535.01 379.75 545.81 379.653C561.84 379.513 577.787 377.418 593.27 373.42L592.16 261.664L623 298.509C618.48 304.499 613.967 310.495 609.46 316.498C612.73 312.474 616.853 309.165 621.555 306.792C626.257 304.419 631.429 303.035 636.73 302.732C635.786 301.824 634.614 301.167 633.327 300.827C632.04 300.486 630.683 300.473 629.39 300.789Z" fill="black"/>
</g>
<path d="M502.67 374.709C502.67 374.709 500.15 333.573 495.21 293.977C492.21 270.226 487.29 246.695 486.21 229.11C484.72 206.108 513.92 212.496 539.34 211.476C564.76 210.457 589.45 207.282 591.21 228.658C592.97 250.033 595.4 373.352 595.4 373.352C595.4 373.352 547.19 385.762 502.67 374.709Z" stroke="#263238" stroke-width="0.75" stroke-linecap="round" stroke-linejoin="round"/>
<path d="M544.22 429.235C543.293 426.996 542.183 424.831 540.9 422.761C534.66 414.766 535.44 407.955 533.15 400.51C532.45 398.23 527.66 392.592 527.66 392.592" stroke="#263238" stroke-width="0.75" stroke-linecap="round" stroke-linejoin="round"/>
<path d="M606.45 327.119L599.02 335.603L601.31 350.476L612.63 339.019L606.45 327.119Z" fill="white" stroke="#263238" stroke-width="0.75" stroke-linecap="round" stroke-linejoin="round"/>
<path d="M600.38 336.219C600.07 334.776 599.9 331.091 598.45 330.61C595.79 329.725 590.67 334.382 589.05 336.594C588.29 337.643 586.65 339.875 586.67 341.144C586.67 341.799 587.27 343.347 587.93 343.453C589.1 343.626 590.42 341.029 591.32 340.298C593.034 339.206 594.821 338.226 596.67 337.364C596.67 337.364 593.52 341.76 592.24 342.77C590.32 344.28 582.36 348.542 587.42 351.082C587.42 351.082 585.47 353.843 588.52 354.564C591.57 355.286 596.44 351.236 596.44 351.236C595.548 352.428 594.507 353.511 593.34 354.458C591.4 356.123 588.54 355.757 589.22 356.931C590.22 358.749 592.87 358.913 595.64 358.018C597.047 357.65 598.36 357.009 599.499 356.133C600.637 355.258 601.577 354.167 602.26 352.929C604.76 348.937 601.27 340.336 600.38 336.219Z" fill="white" stroke="#1A2E35" stroke-width="0.75" stroke-linecap="round" stroke-linejoin="round"/>
<path d="M589.51 350.476C591.682 349.426 593.78 348.241 595.79 346.926C597.125 345.943 598.226 344.697 599.02 343.271" stroke="#1A2E35" stroke-width="0.75" stroke-linecap="round" stroke-linejoin="round"/>
<path d="M567.17 210.765C567.17 210.765 591.93 212.179 591.79 219.5C591.79 219.5 604.19 224.579 604.85 230.312C605.51 236.046 657.8 289.956 648.74 305.599C640.82 319.259 608.88 344.675 608.88 344.675C608.88 344.675 605.82 338.076 602.37 330.37C602.37 330.37 616.37 300.962 622.8 297.941L589.16 256.854" fill="#FFA500"/>
<g opacity="0.2">
<path opacity="0.2" d="M495.38 242.424C489.362 255.973 479.59 267.67 467.13 276.238L469.52 281.491C466.76 283.732 461.7 281.674 461.44 278.22C460.48 282.953 459.523 287.696 458.57 292.448L449.41 292.169C453.89 296.546 461.77 295.892 467.05 292.438C472.33 288.985 475.66 283.463 478.96 278.21C482.26 272.958 485.9 267.503 491.5 264.55C498.22 294.911 504.944 325.275 511.67 355.642C512.75 360.548 513.91 365.608 516.97 369.668C523.31 378.076 535.59 379.605 546.39 379.509C562.421 379.357 578.367 377.256 593.85 373.256C593.45 335.995 593.053 298.736 592.66 261.481L623.45 298.335L608.45 318.335C611.661 313.755 615.928 309.949 620.918 307.214C625.908 304.48 631.487 302.89 637.22 302.568C636.281 301.669 635.116 301.019 633.839 300.682C632.561 300.345 631.215 300.332 629.93 300.644L639.45 297.71L632.01 297.094L636.16 290.62C635.16 292.467 632.55 292.996 630.51 292.323C628.47 291.65 626.9 290.091 625.41 288.59C618.63 281.751 611.77 274.824 606.92 266.599C602.07 258.374 599.36 248.59 601.52 239.365C600.374 242.135 599.22 244.903 598.06 247.667L592.77 233.468C593.269 235.72 593.148 238.057 592.42 240.251C591.692 242.444 590.383 244.416 588.62 245.974C587.27 247.147 585.62 248.119 584.83 249.697C583.77 251.823 584.61 254.324 585.32 256.585C589.71 270.688 587.63 286.868 578.44 298.634C569.25 310.399 552.7 316.912 537.88 313.218C523.06 309.523 511.54 295.065 513.12 280.423C528.964 285.996 545.576 289.29 562.42 290.197C548.3 287.311 534.09 283.367 522.18 275.498C510.27 267.628 500.85 255.247 500 241.385L495.38 242.424Z" fill="black"/>
</g>
<path d="M567.17 210.765C567.17 210.765 591.93 212.179 591.79 219.5C591.79 219.5 604.19 224.579 604.85 230.312C605.51 236.046 657.8 289.956 648.74 305.599C640.82 319.259 608.88 344.675 608.88 344.675C608.88 344.675 605.82 338.076 602.37 330.37C602.37 330.37 616.37 300.962 622.8 297.941L589.16 256.854" stroke="#263238" stroke-width="0.75" stroke-linecap="round" stroke-linejoin="round"/>
<path d="M639.77 296.806C634.26 293.073 626.44 296.998 626.44 294.545C626.44 292.092 635.85 291.871 635.07 289.341" stroke="#263238" stroke-width="0.75" stroke-linecap="round" stroke-linejoin="round"/>
<path d="M596.59 245.993C598.321 241.365 599.204 236.482 599.2 231.563" stroke="#263238" stroke-width="0.75" stroke-linecap="round" stroke-linejoin="round"/>
<path d="M592.57 228.417C592.86 234.007 593.15 241.953 592.89 248.013C592.88 248.312 592.978 248.605 593.166 248.842C593.354 249.08 593.621 249.248 593.923 249.318C594.225 249.388 594.542 249.356 594.822 249.227C595.102 249.098 595.328 248.88 595.46 248.61" stroke="#263238" stroke-width="0.75" stroke-linecap="round" stroke-linejoin="round"/>
<path d="M592.14 221.578C592.14 221.578 592.23 222.771 592.36 224.723" stroke="#263238" stroke-width="0.75" stroke-linecap="round" stroke-linejoin="round"/>
<path d="M479.15 237.614C479.15 237.614 477.67 247.513 479.15 254.583" stroke="#263238" stroke-width="0.75" stroke-linecap="round" stroke-linejoin="round"/>
<path d="M435.89 227.705L430.22 212.006C430.22 212.006 428.45 201.26 427 199.134C425.441 197.252 423.666 195.545 421.71 194.045C420.321 192.166 418.754 190.414 417.03 188.812C415.1 187.253 403.78 181.597 402.9 182.02C402.02 182.443 400.62 184.993 407.97 188.947C405.501 188.803 403.027 189.13 400.69 189.909C397.46 191.188 395.25 191.534 396.69 192.881C398.13 194.228 399.26 194.863 404.48 193.516C406.674 193.758 408.884 193.829 411.09 193.728L412.71 195.565C412.005 195.265 411.211 195.222 410.475 195.443C409.739 195.664 409.112 196.135 408.71 196.768C407.24 199.028 405.55 201.857 406.29 203.502C406.29 203.502 400.63 200.673 399.08 203.011C397.53 205.349 402.32 207.465 404.23 208.879C406.14 210.293 410.77 214.112 410.77 214.112C410.77 214.112 414.05 221.26 421 223.886C421 223.886 423.67 226.859 422.91 229.658L435.89 227.705Z" fill="white" stroke="#263238" stroke-width="0.75" stroke-linecap="round" stroke-linejoin="round"/>
<path d="M411.55 190.871L413.98 192.775L416.69 197.306L418.53 203.242" stroke="#263238" stroke-width="0.75" stroke-linecap="round" stroke-linejoin="round"/>
<path d="M420.08 203.242C420.08 203.242 416.22 207.696 413.48 208.331C412.277 207.852 411.114 207.286 410 206.638C409.51 206.224 408.77 205.425 407.28 204.281" stroke="#263238" stroke-width="0.75" stroke-linecap="round" stroke-linejoin="round"/>
<path d="M415.81 202.886L415.46 201.683C414.317 201.921 413.134 201.921 411.99 201.683L411.11 202.886C412.669 202.672 414.252 202.672 415.81 202.886Z" stroke="#263238" stroke-width="0.75" stroke-linecap="round" stroke-linejoin="round"/>
<path d="M411.92 197.864C412.36 198.822 412.536 199.872 412.43 200.914" stroke="#263238" stroke-width="0.75" stroke-linecap="round" stroke-linejoin="round"/>
<path d="M409.64 201.683C410.54 202.427 411.241 203.369 411.684 204.429C412.126 205.489 412.296 206.636 412.18 207.773" stroke="#263238" stroke-width="0.75" stroke-linecap="round" stroke-linejoin="round"/>
<path d="M414.19 196.739L415.81 198.432V200.346" stroke="#263238" stroke-width="0.75" stroke-linecap="round" stroke-linejoin="round"/>
<path d="M496.88 213.275C496.88 213.275 487.5 212.89 481.53 229.11C481.53 229.11 474.47 233.073 460.1 263.242C460.1 263.242 457.63 260.057 452.32 251.332C447.68 243.713 440.6 233.872 434.76 219.47C434.76 219.47 430.05 225.04 419.98 224.723C419.98 224.723 441.81 295.671 457.1 295.671C473.96 295.671 492.52 257.96 492.52 257.96" fill="#FFA500"/>
<g opacity="0.2">
<path opacity="0.2" d="M495.38 242.424C489.362 255.973 479.59 267.67 467.13 276.238L469.52 281.491C466.76 283.732 461.7 281.674 461.44 278.22C460.48 282.953 459.523 287.696 458.57 292.448L449.41 292.169C453.89 296.546 461.77 295.892 467.05 292.438C472.33 288.985 475.66 283.463 478.96 278.21C482.26 272.958 485.9 267.503 491.5 264.55C498.22 294.911 504.944 325.275 511.67 355.642C512.75 360.548 513.91 365.608 516.97 369.668C523.31 378.076 535.59 379.605 546.39 379.509C562.421 379.357 578.367 377.256 593.85 373.256C593.45 335.995 593.053 298.736 592.66 261.481L623.45 298.335L608.45 318.335C611.661 313.755 615.928 309.949 620.918 307.214C625.908 304.48 631.487 302.89 637.22 302.568C636.281 301.669 635.116 301.019 633.839 300.682C632.561 300.345 631.215 300.332 629.93 300.644L639.45 297.71L632.01 297.094L636.16 290.62C635.16 292.467 632.55 292.996 630.51 292.323C628.47 291.65 626.9 290.091 625.41 288.59C618.63 281.751 611.77 274.824 606.92 266.599C602.07 258.374 599.36 248.59 601.52 239.365C600.374 242.135 599.22 244.903 598.06 247.667L592.77 233.468C593.269 235.72 593.148 238.057 592.42 240.251C591.692 242.444 590.383 244.416 588.62 245.974C587.27 247.147 585.62 248.119 584.83 249.697C583.77 251.823 584.61 254.324 585.32 256.585C589.71 270.688 587.63 286.868 578.44 298.634C569.25 310.399 552.7 316.912 537.88 313.218C523.06 309.523 511.54 295.065 513.12 280.423C528.964 285.996 545.576 289.29 562.42 290.197C548.3 287.311 534.09 283.367 522.18 275.498C510.27 267.628 500.85 255.247 500 241.385L495.38 242.424Z" fill="black"/>
</g>
<path d="M496.88 213.275C496.88 213.275 487.5 212.89 481.53 229.11C481.53 229.11 474.47 233.073 460.1 263.242C460.1 263.242 457.63 260.057 452.32 251.332C447.68 243.713 440.6 233.872 434.76 219.47C434.76 219.47 430.05 225.04 419.98 224.723C419.98 224.723 441.81 295.671 457.1 295.671C473.96 295.671 492.52 257.96 492.52 257.96" stroke="#263238" stroke-width="0.75" stroke-linecap="round" stroke-linejoin="round"/>
<path d="M486.4 232.679C486.3 231.534 486.22 230.341 486.16 229.11" stroke="#263238" stroke-width="0.75" stroke-linecap="round" stroke-linejoin="round"/>
<path d="M488 254.17C490.73 253.882 488.35 248.485 486.9 237.604" stroke="#263238" stroke-width="0.75" stroke-linecap="round" stroke-linejoin="round"/>
<path d="M481 234.016C481 234.016 483.28 246.83 485.9 252.025" stroke="#263238" stroke-width="0.75" stroke-linecap="round" stroke-linejoin="round"/>
<path d="M543.91 185.502C543.91 185.502 546.48 210.014 552.16 212.968C552.16 212.968 551.25 222.328 534.66 222.328C518.07 222.328 518.06 209.129 518.06 209.129L543.91 185.502Z" fill="white"/>
<path d="M508.05 158.999C508.05 158.999 505.36 174.391 505.8 177.633C506.24 180.875 505.42 184.194 506.1 189.418C506.78 194.642 510.92 209.216 520.8 211.438C526 212.602 537.12 207.792 541.74 197.864C542.06 197.2 543.91 189.591 543.91 189.591C543.91 189.591 548.49 192.564 549.96 187.744C551.43 182.924 553.91 178.528 550.73 175.652C547.55 172.775 543.26 179.009 542.66 181.308C542.06 183.607 539.71 181 539.71 181C539.71 181 538.25 170.418 534.8 167.532C531.35 164.646 537.8 159.269 534.52 155.565C531.24 151.861 516.75 152.737 508.05 158.999Z" fill="#263238" stroke="#263238" stroke-width="0.75" stroke-linecap="round" stroke-linejoin="round"/>
<path d="M543.91 185.502C543.91 185.502 546.48 210.014 552.16 212.968C552.16 212.968 551.25 222.328 534.66 222.328C518.07 222.328 518.06 209.129 518.06 209.129L543.91 185.502Z" stroke="#263238" stroke-width="0.75" stroke-linecap="round" stroke-linejoin="round"/>
<path d="M504.21 159.249C504.21 159.249 489.1 157.855 492.42 146.128C495.74 134.401 508.35 133.122 508.35 133.122C508.35 133.122 505.8 141.539 520.77 139.856C535.74 138.172 551.91 136.796 552.57 151.332C554.185 155.882 554.664 160.734 553.969 165.495C553.274 170.256 551.425 174.793 548.57 178.74C538.76 192.208 529.75 181.308 529.75 181.308L522 165.243L507.6 162.309L504.21 159.249Z" fill="#263238"/>
<path d="M526 151.39C526 151.39 543.88 153.381 552.62 151.39C561.36 149.399 563.75 172.169 563.75 172.169L561.63 186.06L537.781 190.014L526.781 180.577L522.23 167.388L526 151.39Z" fill="#858585" stroke="#263238" stroke-width="0.75" stroke-miterlimit="10"/>
<path d="M504.21 159.249C504.21 159.249 489.1 157.855 492.42 146.128C495.74 134.401 508.35 133.122 508.35 133.122C508.35 133.122 505.8 141.539 520.77 139.856C535.74 138.172 551.91 136.796 552.57 151.332C554.185 155.882 554.664 160.734 553.969 165.495C553.274 170.256 551.425 174.793 548.57 178.74C538.76 192.208 529.75 181.308 529.75 181.308L522 165.243L507.6 162.309L504.21 159.249Z" stroke="#263238" stroke-width="0.75" stroke-miterlimit="10"/>
<path d="M502 157.354C502 157.354 498.55 172.89 499 176.046C499.45 179.201 498.41 182.645 499.08 187.869C499.75 193.092 502.08 212.688 513.85 211.178C525.41 209.706 541.31 200.596 542.72 191.563C542.84 190.832 543.53 188.677 543.53 188.677C544.884 189.069 546.344 188.929 547.591 188.287C548.837 187.645 549.769 186.554 550.18 185.252C552 180.384 554.99 175.921 551.35 173.102C547.56 170.158 542.57 176.623 541.82 178.951C541.07 181.279 538.4 178.701 538.4 178.701C538.4 178.701 536.94 168.119 532.99 165.339C529.04 162.559 536.65 156.979 532.93 153.343C529.21 149.706 512.3 150.899 502 157.354Z" fill="white" stroke="#263238" stroke-width="0.75" stroke-linecap="round" stroke-linejoin="round"/>
<path d="M508.07 175.854C508.07 178.74 502.47 183.703 503.13 186.253C503.49 187.648 507.26 188.331 508.04 189.562C508.235 189.926 508.341 190.327 508.35 190.736" fill="white"/>
<path d="M508.07 175.854C508.07 178.74 502.47 183.703 503.13 186.253C503.49 187.648 507.26 188.331 508.04 189.562C508.235 189.926 508.341 190.327 508.35 190.736" stroke="#263238" stroke-width="0.75" stroke-linecap="round" stroke-linejoin="round"/>
<path d="M502.72 177.547C502.64 178.663 502.11 179.529 501.53 179.471C500.95 179.413 500.53 178.509 500.64 177.383C500.75 176.258 501.26 175.402 501.83 175.459C502.4 175.517 502.8 176.431 502.72 177.547Z" fill="#263238"/>
<path d="M515.77 175.719C515.68 176.883 515.12 177.787 514.52 177.749C513.92 177.71 513.52 176.729 513.59 175.565C513.66 174.401 514.24 173.497 514.84 173.535C515.44 173.574 515.85 174.555 515.77 175.719Z" fill="#263238"/>
<path d="M509.86 170.572C509.86 170.572 514.86 166.724 521.48 170.813" stroke="#263238" stroke-width="0.75" stroke-linecap="round" stroke-linejoin="round"/>
<path d="M524.07 193.15C524.07 193.15 513.07 202.54 508.34 194.363L524.07 193.15Z" fill="white"/>
<path d="M524.07 193.15C524.07 193.15 513.07 202.54 508.34 194.363" stroke="#263238" stroke-width="0.75" stroke-linecap="round" stroke-linejoin="round"/>
<path d="M496.51 173.294C496.51 173.294 499.82 168.927 505.44 172.15" stroke="#263238" stroke-width="0.75" stroke-linecap="round" stroke-linejoin="round"/>
<path d="M505.71 155.229C505.71 155.229 489.41 156.248 497.58 166.041C497.58 166.041 497.4 158.99 505.71 155.229Z" fill="#263238"/>
<path d="M505.71 177.479C505.71 180.154 503.71 182.289 501.29 182.289C498.87 182.289 496.88 180.125 496.88 177.479C496.88 174.834 498.88 173.631 501.29 173.631C503.7 173.631 505.71 174.795 505.71 177.479Z" stroke="#263238" stroke-width="0.75" stroke-linecap="round" stroke-linejoin="round"/>
<path d="M521.22 175.642C521.089 176.964 520.45 178.192 519.429 179.086C518.407 179.98 517.076 180.475 515.695 180.475C514.314 180.475 512.983 179.98 511.961 179.086C510.939 178.192 510.301 176.964 510.17 175.642C510.17 172.968 512.64 171.794 515.69 171.794C518.74 171.794 521.22 172.968 521.22 175.642Z" stroke="#263238" stroke-width="0.75" stroke-linecap="round" stroke-linejoin="round"/>
<path d="M505.38 175.642C505.38 174.478 510.17 173.881 510.17 175.045" stroke="#263238" stroke-width="0.75" stroke-linecap="round" stroke-linejoin="round"/>
<path d="M520.87 173.756L543.91 175.642" stroke="#263238" stroke-width="0.75" stroke-linecap="round" stroke-linejoin="round"/>
<path d="M507.68 303.559C517.31 319.98 541.73 354.468 577.81 356.469" stroke="#263238" stroke-width="0.75" stroke-linecap="round" stroke-linejoin="round"/>
<path d="M503.07 294.997C503.07 294.997 503.78 296.507 505.15 299.066" stroke="#263238" stroke-width="0.75" stroke-linecap="round" stroke-linejoin="round"/>
<path d="M556.12 210.765C554.52 210.765 552.9 210.861 551.26 210.928C550.38 218.076 541.7 220.144 533.68 220.144C525.86 220.144 521.42 218.172 520.8 211.438C519.16 211.438 517.54 211.438 515.95 211.438C516.59 220.971 523.12 224.723 533.68 224.723C544.47 224.675 555.46 220.76 556.12 210.765Z" fill="#FFA500" stroke="#263238" stroke-miterlimit="10"/>
<path d="M459.31 281.443C459.31 281.443 458.87 269.562 460.63 268.994C462.39 268.427 462.39 275.497 467.1 275.218" stroke="#263238" stroke-width="0.75" stroke-linecap="round" stroke-linejoin="round"/>
<path d="M402.274 184.49L284.823 180.623C282.383 180.543 280.338 182.381 280.254 184.728L279.936 193.669C279.853 196.016 281.763 197.984 284.202 198.064L401.654 201.931C404.093 202.011 406.139 200.173 406.222 197.826L406.54 188.885C406.624 186.538 404.714 184.57 402.274 184.49Z" fill="white" stroke="#263238" stroke-width="0.75" stroke-linecap="round" stroke-linejoin="round"/>
<path d="M335.85 192.227V191.265L339.92 189.582V190.601L337.12 191.746L339.92 192.881V193.911L335.85 192.227Z" fill="#263238"/>
<path d="M344.44 187.272H345.7L342 196.248H340.73L344.44 187.272Z" fill="#263238"/>
<path d="M346.54 192.89L349.35 191.755L346.54 190.611V189.591L350.61 191.274V192.236L346.54 193.929V192.89Z" fill="#263238"/>
<path d="M273.94 186.609H271.08" stroke="#263238" stroke-width="0.75" stroke-linecap="round" stroke-linejoin="round"/>
<path d="M425 277.672L421.65 263.732L415.07 239.981L408.13 232.804L398.94 226.07C398.94 226.07 388.78 221.943 388.44 224.069C388.318 224.631 388.404 225.217 388.683 225.725C388.962 226.232 389.418 226.63 389.97 226.849C389.97 226.849 387.08 225.887 386.4 227.59C385.72 229.293 390.4 230.534 393.03 232.746C394.557 234.008 395.981 235.382 397.29 236.854C397.29 236.854 393.6 241.279 394.08 243.675L394.39 244.771C394.39 244.771 387.03 240.923 386.33 244.031C385.63 247.138 390.67 247.782 393.55 250.765C395.259 252.552 397.122 254.196 399.12 255.68C399.12 255.68 401.97 262.607 408.12 265.06L408.5 280.279C408.5 280.279 418 282.193 425 277.672Z" fill="white" stroke="#263238" stroke-width="0.75" stroke-linecap="round" stroke-linejoin="round"/>
<path d="M390.73 227.734C392.936 229.198 395.245 230.513 397.64 231.669L403.49 237.566C404.912 239.296 406.139 241.167 407.15 243.146" fill="white"/>
<path d="M390.73 227.734C392.936 229.198 395.245 230.513 397.64 231.669L403.49 237.566C404.912 239.296 406.139 241.167 407.15 243.146" stroke="#263238" stroke-width="0.75" stroke-linecap="round" stroke-linejoin="round"/>
<path d="M398.3 237.883C399.332 239.553 400.471 241.16 401.71 242.693C403.07 244.242 402.92 245.137 401.97 246.205" stroke="#263238" stroke-width="0.75" stroke-linecap="round" stroke-linejoin="round"/>
<path d="M396.1 245.801C396.905 246.361 397.643 247.006 398.3 247.725C399.24 248.783 401.64 249.523 403.04 248.581C404.44 247.638 408.17 245.069 407.66 244.107" stroke="#263238" stroke-width="0.75" stroke-linecap="round" stroke-linejoin="round"/>
<path d="M398.94 241.192C398.94 241.192 398.94 242.635 397.94 243.116C396.94 243.597 399.37 242.558 400.34 243.443" stroke="#263238" stroke-width="0.75" stroke-linecap="round" stroke-linejoin="round"/>
<path d="M489 318.787C489 318.787 480.67 313.698 468.78 317.825C458.46 318.353 448.182 319.471 438 321.173C438 321.173 439.35 317.739 434.52 318.518C434.52 318.518 432.72 282.732 426.59 270.649C426.59 270.649 425.86 274.103 404.47 274.959C404.47 274.959 402.95 338.961 410.77 348.34C418.59 357.72 484.16 350.447 484.16 350.447C484.16 350.447 495.82 329.745 489 318.787Z" fill="#263238" stroke="#263238" stroke-width="0.75" stroke-linecap="round" stroke-linejoin="round"/>
<path opacity="0.2" d="M484.13 350.447C484.13 350.447 485.29 348.379 486.67 345.214C485.31 331.63 447.35 346.695 430.67 348.34C419.58 349.437 411.6 343.444 407.49 339.297C408.34 343.521 409.4 346.734 410.74 348.34C418.56 357.729 484.13 350.447 484.13 350.447Z" fill="black"/>
<path d="M419.67 331.573C419.67 331.573 432.67 318.239 434.93 321.173C437.19 324.107 431.4 324.367 428.03 337.181" stroke="#7F7F7F" stroke-width="0.75" stroke-linecap="round" stroke-linejoin="round"/>
<path d="M483.75 429.244C483.75 429.244 485.69 392.948 483.75 365.194C481.81 337.441 466.83 327.571 483.75 319.297C500.67 311.024 556.42 313.16 573.9 321.433C591.38 329.706 580.28 367.869 581.11 384.675C581.94 401.481 585 429.244 585 429.244H483.75Z" fill="#263238" stroke="#263238" stroke-width="0.75" stroke-linecap="round" stroke-linejoin="round"/>
<path opacity="0.2" d="M583.83 418.076C582.83 408.456 581.6 394.651 581.11 384.675C580.71 376.623 583.04 363.684 583.67 351.467C580.76 340.538 577.1 332.015 572.73 331.573C560.15 330.332 551.65 356.402 549.8 371.649C547.95 386.897 549.67 393.044 549.67 393.044L526.37 373.65C526.37 373.65 514.78 365.954 508.43 375.517C503.2 383.444 525.72 417.47 537.07 429.244H578.57L583.83 418.076Z" fill="black"/>
<path d="M518.14 394.911C518.14 395.28 518.026 395.641 517.813 395.948C517.6 396.254 517.297 396.494 516.942 396.635C516.588 396.776 516.198 396.813 515.821 396.741C515.445 396.669 515.099 396.491 514.828 396.23C514.557 395.969 514.372 395.637 514.297 395.275C514.222 394.913 514.261 394.538 514.407 394.197C514.554 393.856 514.803 393.564 515.122 393.359C515.441 393.154 515.816 393.044 516.2 393.044C516.455 393.044 516.707 393.093 516.942 393.186C517.178 393.28 517.391 393.418 517.572 393.591C517.752 393.764 517.895 393.97 517.992 394.197C518.09 394.423 518.14 394.666 518.14 394.911Z" fill="#858585"/>
<path d="M518.14 416.18C518.14 416.549 518.026 416.91 517.813 417.217C517.6 417.524 517.297 417.763 516.942 417.904C516.588 418.046 516.198 418.083 515.821 418.011C515.445 417.939 515.099 417.761 514.828 417.5C514.557 417.239 514.372 416.906 514.297 416.544C514.222 416.182 514.261 415.807 514.407 415.466C514.554 415.125 514.803 414.834 515.122 414.629C515.441 414.423 515.816 414.314 516.2 414.314C516.455 414.314 516.707 414.362 516.942 414.456C517.178 414.55 517.391 414.687 517.572 414.861C517.752 415.034 517.895 415.24 517.992 415.466C518.09 415.692 518.14 415.935 518.14 416.18Z" fill="#858585"/>
<path d="M519.341 348.34C522.701 348.34 525.081 354.92 528.261 354.882C531.441 354.843 539.501 333.564 543.001 327.59C546.501 321.616 544.931 314.257 539.651 312.9C534.371 311.544 503.41 312.9 503.41 312.9C502.281 314.639 501.608 316.616 501.452 318.661C501.295 320.706 501.658 322.757 502.511 324.637C505.511 331.044 506.58 352.034 510.83 352.746C515.08 353.458 515.091 348.34 519.341 348.34Z" fill="#858585" stroke="#263238" stroke-linecap="round" stroke-linejoin="round"/>
<path d="M412 285.281C411.868 285.628 411.633 285.929 411.323 286.147C411.014 286.364 410.644 286.489 410.261 286.505C409.878 286.521 409.498 286.427 409.171 286.235C408.843 286.043 408.582 285.763 408.42 285.428C408.258 285.094 408.203 284.721 408.261 284.356C408.319 283.992 408.489 283.652 408.748 283.38C409.007 283.108 409.344 282.916 409.716 282.828C410.089 282.74 410.48 282.76 410.84 282.886C411.08 282.97 411.3 283.098 411.489 283.264C411.677 283.43 411.829 283.63 411.937 283.852C412.045 284.075 412.106 284.315 412.117 284.561C412.127 284.806 412.088 285.051 412 285.281Z" fill="#858585"/>
<path d="M412 293.622C411.868 293.968 411.633 294.269 411.323 294.487C411.014 294.705 410.644 294.829 410.261 294.845C409.878 294.861 409.498 294.767 409.171 294.575C408.843 294.384 408.582 294.103 408.42 293.769C408.258 293.434 408.203 293.061 408.261 292.697C408.319 292.332 408.489 291.992 408.748 291.72C409.007 291.448 409.344 291.256 409.716 291.168C410.089 291.08 410.48 291.1 410.84 291.226C411.315 291.408 411.7 291.757 411.915 292.202C412.131 292.647 412.161 293.155 412 293.622Z" fill="#858585"/>
<path d="M502.52 319.48C502.52 319.48 515.28 347.167 520.45 346.339C525.62 345.512 529.33 334.16 534.51 328.504C539.69 322.847 540.2 317.864 539.85 314.757L538.39 300.625L526.74 299.375L510.1 311.121L502.52 319.48Z" fill="white" stroke="#263238" stroke-width="0.75" stroke-linecap="round" stroke-linejoin="round"/>
<path d="M510.1 311.12L502.52 319.48C502.52 319.48 504.21 323.145 506.6 327.763C507.514 327.786 508.427 327.679 509.31 327.446C520.85 324.377 537.72 311.755 536.73 302.433L536.2 300.586C536.744 300.654 537.295 300.654 537.84 300.586L526.74 299.394L510.1 311.12Z" fill="#263238"/>
<path d="M496.72 264.867C496.72 264.867 490.87 280.519 490.87 283.905C490.87 287.292 489.3 290.639 489.25 296.181C489.2 301.722 488.83 322.328 501.25 322.328C513.46 322.328 533.61 314.324 535.25 304.896V302.972C535.917 303.264 536.637 303.427 537.37 303.451C538.102 303.475 538.832 303.36 539.519 303.112C540.205 302.865 540.834 302.49 541.369 302.009C541.905 301.527 542.337 300.949 542.64 300.307C545.23 295.497 548.97 291.265 545.64 287.85C542.31 284.434 536.03 290.341 534.92 292.66C533.81 294.978 531.4 291.948 531.4 291.948C531.4 291.948 531.4 280.74 527.71 277.354C524.02 273.968 532.71 269.177 529.37 264.906C526.03 260.635 508.3 259.528 496.72 264.867Z" fill="white" stroke="#263238" stroke-width="0.75" stroke-linecap="round" stroke-linejoin="round"/>
<path d="M542.83 291.794C542.83 291.794 549.83 282.299 545.05 271.091C545.05 271.091 541.17 252.236 517.31 250.283C517.31 250.283 523.41 245.829 519.53 244.05C513.65 241.356 503.31 250.457 503.31 250.457C503.31 250.457 508.16 243.405 505.8 243.29C503.44 243.174 486.8 261.135 496.72 267.542C506.64 273.949 521.23 268.427 521.23 268.427L528.41 291.794L529.52 294.757L539.94 295.469L542.83 291.794Z" fill="#263238" stroke="#263238" stroke-width="0.75" stroke-linecap="round" stroke-linejoin="round"/>
<path d="M529.37 257.932C536.04 261.655 540.37 268.437 538.58 283.367" stroke="#7F7F7F" stroke-width="0.75" stroke-linecap="round" stroke-linejoin="round"/>
<path d="M509.75 256.575C514.09 256.161 520.5 254.122 526.37 256.508" stroke="#7F7F7F" stroke-width="0.75" stroke-linecap="round" stroke-linejoin="round"/>
<path d="M515.83 246.724C515.83 246.724 502.54 252.948 505.58 255.796" stroke="#7F7F7F" stroke-width="0.75" stroke-linecap="round" stroke-linejoin="round"/>
<path d="M497.8 258.288C500.85 260.596 504.55 258.105 511.02 258.288" stroke="#7F7F7F" stroke-width="0.75" stroke-linecap="round" stroke-linejoin="round"/>
<path d="M501.59 248.677C501.59 248.677 498.32 252.169 497.31 255.084" stroke="#7F7F7F" stroke-width="0.75" stroke-linecap="round" stroke-linejoin="round"/>
<path d="M496.72 264.867C496.72 264.867 490.87 280.519 490.87 283.905C490.87 287.292 489.3 290.639 489.25 296.181C489.2 301.722 488.83 322.328 501.25 322.328C513.46 322.328 533.61 314.324 535.25 304.896V302.972C535.917 303.264 536.637 303.427 537.37 303.451C538.102 303.475 538.832 303.36 539.519 303.112C540.205 302.865 540.834 302.49 541.369 302.009C541.905 301.527 542.337 300.949 542.64 300.307C545.23 295.497 548.97 291.265 545.64 287.85C542.31 284.434 536.03 290.341 534.92 292.66C533.81 294.978 531.4 291.948 531.4 291.948C531.4 291.948 531.4 280.74 527.71 277.354C524.02 273.968 532.71 269.177 529.37 264.906C526.03 260.635 508.3 259.528 496.72 264.867Z" fill="white" stroke="#263238" stroke-width="0.75" stroke-linecap="round" stroke-linejoin="round"/>
<path d="M502.52 285.146C502.52 285.146 495.72 291.486 496.04 294.218C496.22 295.719 500.04 296.931 500.67 298.307C500.794 299.075 500.794 299.857 500.67 300.625" fill="white"/>
<path d="M502.52 285.146C502.52 285.146 495.72 291.486 496.04 294.218C496.22 295.719 500.04 296.931 500.67 298.307C500.794 299.075 500.794 299.857 500.67 300.625" stroke="#263238" stroke-width="0.75" stroke-linecap="round" stroke-linejoin="round"/>
<path d="M497.5 285.647C497.06 286.907 496.01 287.705 495.14 287.426C494.27 287.148 493.91 285.907 494.34 284.646C494.77 283.386 495.83 282.588 496.71 282.867C497.59 283.146 497.93 284.387 497.5 285.647Z" fill="#263238"/>
<path d="M514.26 285.647C513.83 286.907 512.77 287.705 511.9 287.426C511.03 287.148 510.68 285.907 511.11 284.646C511.54 283.386 512.6 282.588 513.47 282.867C514.34 283.146 514.7 284.387 514.26 285.647Z" fill="#263238"/>
<path d="M508.43 280.327C508.43 280.327 514.17 276.96 520.43 282.126L508.43 280.327Z" fill="white"/>
<path d="M508.43 280.327C508.43 280.327 514.17 276.96 520.43 282.126" stroke="#263238" stroke-width="0.75" stroke-linecap="round" stroke-linejoin="round"/>
<path d="M496.72 302.068C496.72 302.068 505.66 305.089 514.44 302.953C514.44 302.934 500.71 311.832 496.72 302.068Z" fill="white" stroke="#263238" stroke-width="0.75" stroke-linecap="round" stroke-linejoin="round"/>
<path d="M493.09 281.231C493.09 281.231 497.15 277.143 502.52 281.231H493.09Z" fill="white"/>
<path d="M493.09 281.231C493.09 281.231 497.15 277.143 502.52 281.231" stroke="#263238" stroke-width="0.75" stroke-linecap="round" stroke-linejoin="round"/>
<path d="M528.29 323.857C526.57 328.764 523.98 335.401 521.23 339.451L528.29 323.857Z" fill="white"/>
<path d="M528.29 323.857C526.57 328.764 523.98 335.401 521.23 339.451" stroke="#263238" stroke-width="0.75" stroke-linecap="round" stroke-linejoin="round"/>
<path d="M530.38 317.46C530.38 317.46 529.99 318.797 529.32 320.865L530.38 317.46Z" fill="white"/>
<path d="M530.38 317.46C530.38 317.46 529.99 318.797 529.32 320.865" stroke="#263238" stroke-width="0.75" stroke-linecap="round" stroke-linejoin="round"/>
<path d="M525.24 359.432L519.45 352.698C519.45 352.698 512.45 342.885 509.75 335.189C507.05 327.493 506.69 323.405 502.44 323.405C498.19 323.405 483.22 322.443 483.73 327.33C483.043 329.128 483.043 331.102 483.73 332.9C484.028 335.12 484.849 337.246 486.13 339.114C488.13 341.904 489.36 341.365 489.36 341.365C489.36 341.365 490.72 343.54 492.08 343.54C492.08 343.54 493.27 349.427 502.46 354.506L508.92 361.24L515.73 373.352L528.42 363.636L525.24 359.432Z" fill="white" stroke="#263238" stroke-width="0.75" stroke-linecap="round" stroke-linejoin="round"/>
<path d="M504.14 330.091C502.614 330.744 501.035 331.278 499.42 331.688C497.25 332.178 489.85 333.285 489.34 335.372C488.83 337.46 491.76 342.741 493.34 342.982C494.92 343.222 500.34 342.982 500.61 341.875C500.756 342.855 500.756 343.849 500.61 344.829C500.35 346.301 499.2 348.629 501.12 352.438" fill="white"/>
<path d="M504.14 330.091C502.614 330.744 501.035 331.278 499.42 331.688C497.25 332.178 489.85 333.285 489.34 335.372C488.83 337.46 491.76 342.741 493.34 342.982C494.92 343.222 500.34 342.982 500.61 341.875C500.756 342.855 500.756 343.849 500.61 344.829C500.35 346.301 499.2 348.629 501.12 352.438" stroke="#263238" stroke-width="0.75" stroke-linecap="round" stroke-linejoin="round"/>
<path d="M483.71 332.92C484.426 331.942 485.496 331.256 486.71 330.996C488.62 330.62 496.28 328.783 497.49 327.927" fill="white"/>
<path d="M483.71 332.92C484.426 331.942 485.496 331.256 486.71 330.996C488.62 330.62 496.28 328.783 497.49 327.927" stroke="#263238" stroke-width="0.75" stroke-linecap="round" stroke-linejoin="round"/>
<path d="M483.73 327.349C484.657 326.901 485.643 326.577 486.66 326.387C488.19 326.137 496.04 323.992 498.66 324.271" fill="white"/>
<path d="M483.73 327.349C484.657 326.901 485.643 326.577 486.66 326.387C488.19 326.137 496.04 323.992 498.66 324.271" stroke="#263238" stroke-width="0.75" stroke-linecap="round" stroke-linejoin="round"/>
<path d="M499.55 340.134C499.55 340.134 497.7 338.73 496.71 339.172C495.72 339.615 495.38 340.644 494.1 341.308" fill="white"/>
<path d="M499.55 340.134C499.55 340.134 497.7 338.73 496.71 339.172C495.72 339.615 495.38 340.644 494.1 341.308" stroke="#263238" stroke-width="0.75" stroke-linecap="round" stroke-linejoin="round"/>
<path d="M496.71 339.134C498.299 338.711 499.785 337.989 501.08 337.008L496.71 339.134Z" fill="white"/>
<path d="M496.71 339.134C498.299 338.711 499.785 337.989 501.08 337.008" stroke="#263238" stroke-width="0.75" stroke-linecap="round" stroke-linejoin="round"/>
<path d="M577.5 323.04C567.99 318.028 555.03 336.383 554.76 358.528C554.49 380.673 554.2 384.675 554.2 384.675L525.63 355.055C525.63 355.055 523.69 362.799 510.1 368.937C514.618 380.942 520.575 392.4 527.85 403.078C539.5 419.894 550.85 434.824 558.09 434.824C565.33 434.824 578.7 418.537 583.6 397.2C594.15 351.323 597.25 333.449 577.5 323.04Z" fill="#263238" stroke="#263238" stroke-width="0.75" stroke-linecap="round" stroke-linejoin="round"/>
<path d="M559.511 388.59C559.396 388.505 559.317 388.384 559.287 388.248C559.257 388.112 559.278 387.97 559.346 387.848C559.415 387.726 559.526 387.63 559.66 387.58C559.795 387.529 559.944 387.526 560.081 387.571C564.301 388.946 571.85 392.659 576.67 402.289" stroke="#7F7F7F" stroke-width="0.75" stroke-linecap="round" stroke-linejoin="round"/>
<path d="M570.29 406.022C568.929 400.352 566.074 395.114 562 390.812" stroke="#7F7F7F" stroke-width="0.75" stroke-linecap="round" stroke-linejoin="round"/>
<path d="M579.36 389.35C580.08 389.991 580.8 390.732 581.52 391.572" stroke="#7F7F7F" stroke-width="0.75" stroke-linecap="round" stroke-linejoin="round"/>
<path d="M559.28 383.838C559.28 383.838 567.79 380.346 577.21 387.503" stroke="#7F7F7F" stroke-width="0.75" stroke-linecap="round" stroke-linejoin="round"/>
<path d="M556.78 360.673C556.51 362.049 556.3 363.463 556.14 364.934" stroke="#7F7F7F" stroke-width="0.75" stroke-linecap="round" stroke-linejoin="round"/>
<path d="M570.4 335.574C564.585 341.207 560.332 348.153 558.03 355.776" stroke="#7F7F7F" stroke-width="0.75" stroke-linecap="round" stroke-linejoin="round"/>
<path d="M520.08 375.517C520.08 375.886 519.966 376.247 519.753 376.553C519.54 376.86 519.237 377.1 518.883 377.241C518.528 377.382 518.138 377.419 517.762 377.347C517.385 377.275 517.04 377.097 516.768 376.836C516.497 376.575 516.312 376.243 516.237 375.881C516.163 375.519 516.201 375.143 516.348 374.802C516.495 374.461 516.743 374.17 517.062 373.965C517.381 373.76 517.757 373.65 518.14 373.65C518.655 373.65 519.148 373.847 519.512 374.197C519.876 374.547 520.08 375.022 520.08 375.517Z" fill="#858585"/>
<path d="M524 383.03C523.99 383.399 523.867 383.757 523.647 384.06C523.426 384.362 523.117 384.595 522.76 384.729C522.402 384.864 522.011 384.893 521.636 384.815C521.261 384.736 520.918 384.553 520.651 384.288C520.384 384.023 520.204 383.688 520.133 383.325C520.063 382.961 520.106 382.586 520.257 382.247C520.407 381.907 520.658 381.617 520.979 381.414C521.3 381.211 521.676 381.104 522.06 381.106C522.32 381.106 522.577 381.156 522.816 381.253C523.056 381.351 523.272 381.493 523.453 381.673C523.634 381.852 523.776 382.065 523.87 382.298C523.964 382.531 524.008 382.78 524 383.03Z" fill="#858585"/>
<path d="M549.67 379.98L525.63 355.055" stroke="#7F7F7F" stroke-width="0.75" stroke-linecap="round" stroke-linejoin="round"/>
<path d="M564.76 327.782C559.28 334.285 554.92 345.781 554.76 358.566C554.48 380.692 554.2 384.713 554.2 384.713" stroke="#7F7F7F" stroke-width="0.75" stroke-linecap="round" stroke-linejoin="round"/>
<path d="M571 322.866C569.588 323.474 568.29 324.303 567.16 325.319" stroke="#7F7F7F" stroke-width="0.75" stroke-linecap="round" stroke-linejoin="round"/>
<path d="M569 427.523C573.78 421.991 578.6 413.699 581.79 403.915" stroke="#7F7F7F" stroke-width="0.75" stroke-linecap="round" stroke-linejoin="round"/>
<path d="M510.1 368.937C514.618 380.942 520.575 392.399 527.85 403.078C534.59 412.804 541.24 421.904 547.04 427.849" stroke="#7F7F7F" stroke-width="0.75" stroke-linecap="round" stroke-linejoin="round"/>
<path d="M524.69 434.035H480.23V430.12H525.05C525.4 430.12 525.736 430.254 525.984 430.492C526.231 430.73 526.37 431.053 526.37 431.39V432.419C526.37 432.848 526.193 433.259 525.878 433.562C525.563 433.865 525.136 434.035 524.69 434.035Z" fill="#FFA500" stroke="#263238" stroke-linecap="round" stroke-linejoin="round"/>
<path d="M458.63 365.368H464.26C465.122 365.372 465.96 365.644 466.648 366.143C467.336 366.642 467.838 367.342 468.08 368.138L486.51 429.139C486.678 429.709 486.706 430.308 486.594 430.891C486.481 431.474 486.23 432.023 485.861 432.497C485.491 432.971 485.012 433.356 484.462 433.623C483.912 433.89 483.306 434.031 482.69 434.035H477.8L458.63 365.368Z" fill="#263238" stroke="#263238" stroke-width="0.75" stroke-linecap="round" stroke-linejoin="round"/>
<path d="M399 434.035H480.73C481.346 434.031 481.953 433.89 482.503 433.623C483.053 433.356 483.531 432.971 483.901 432.497C484.271 432.023 484.522 431.474 484.634 430.891C484.747 430.308 484.718 429.709 484.55 429.139L466.12 368.138C465.879 367.342 465.377 366.642 464.688 366.143C464 365.644 463.162 365.372 462.3 365.368H380.59C379.973 365.371 379.366 365.513 378.815 365.78C378.264 366.047 377.785 366.434 377.415 366.909C377.045 367.384 376.794 367.935 376.682 368.519C376.571 369.102 376.601 369.703 376.77 370.274L395.19 431.274C395.433 432.067 395.935 432.764 396.621 433.261C397.307 433.758 398.141 434.03 399 434.035Z" fill="#FFA500" stroke="#263238" stroke-width="0.75" stroke-linecap="round" stroke-linejoin="round"/>
<path d="M388.25 226.33H270.73C268.288 226.33 266.31 228.233 266.31 230.582V239.528C266.31 241.877 268.288 243.78 270.73 243.78H388.25C390.691 243.78 392.67 241.877 392.67 239.528V230.582C392.67 228.233 390.691 226.33 388.25 226.33Z" fill="#92E3A9"/>
<path opacity="0.5" d="M388.25 226.33H270.73C268.288 226.33 266.31 228.233 266.31 230.582V239.528C266.31 241.877 268.288 243.78 270.73 243.78H388.25C390.691 243.78 392.67 241.877 392.67 239.528V230.582C392.67 228.233 390.691 226.33 388.25 226.33Z" fill="#FFA500"/>
<path d="M388.25 226.33H270.73C268.288 226.33 266.31 228.233 266.31 230.582V239.528C266.31 241.877 268.288 243.78 270.73 243.78H388.25C390.691 243.78 392.67 241.877 392.67 239.528V230.582C392.67 228.233 390.691 226.33 388.25 226.33Z" stroke="#263238" stroke-width="0.75" stroke-linecap="round" stroke-linejoin="round"/>
<path d="M325.4 236.748V231.938C325.379 231.654 325.42 231.369 325.519 231.1C325.619 230.832 325.774 230.586 325.976 230.378C326.178 230.17 326.423 230.004 326.694 229.891C326.966 229.777 327.259 229.719 327.555 229.719C327.851 229.719 328.143 229.777 328.415 229.891C328.687 230.004 328.931 230.17 329.133 230.378C329.335 230.586 329.491 230.832 329.59 231.1C329.689 231.369 329.73 231.654 329.71 231.938V232.9H328.33V231.842C328.33 231.245 328.03 231.005 327.59 231.005C327.15 231.005 326.86 231.245 326.86 231.842V236.844C326.86 237.431 327.15 237.662 327.59 237.662C328.03 237.662 328.33 237.431 328.33 236.844V235.469H329.71V236.738C329.73 237.022 329.689 237.308 329.59 237.576C329.491 237.844 329.335 238.09 329.133 238.298C328.931 238.506 328.687 238.672 328.415 238.786C328.143 238.899 327.851 238.958 327.555 238.958C327.259 238.958 326.966 238.899 326.694 238.786C326.423 238.672 326.178 238.506 325.976 238.298C325.774 238.09 325.619 237.844 325.519 237.576C325.42 237.308 325.379 237.022 325.4 236.738V236.748Z" fill="#263238"/>
<path d="M331.19 234.843H329.4V233.881H331.19V232.15H332.19V233.881H334V234.843H332.22V236.594H331.22L331.19 234.843Z" fill="#263238"/>
<path d="M336.51 234.843H334.73V233.881H336.51V232.15H337.51V233.881H339.29V234.843H337.51V236.594H336.51V234.843Z" fill="#263238"/>
<path d="M380.185 144.956L264.002 161.959C261.588 162.312 259.929 164.481 260.297 166.802L261.695 175.647C262.062 177.969 264.316 179.565 266.73 179.211L382.913 162.208C385.326 161.855 386.985 159.687 386.618 157.365L385.219 148.52C384.852 146.199 382.598 144.603 380.185 144.956Z" fill="#FFA500" stroke="#263238" stroke-width="0.75" stroke-linecap="round" stroke-linejoin="round"/>
<path d="M92.5604 225.194C92.5604 225.194 82.2904 230.072 80.0004 239.874C80.0004 239.874 77.0904 237.075 75.9304 249.119C75.9304 249.119 50.0104 295.353 49.7104 315.247C49.4104 335.141 98.3504 367.359 98.3504 367.359C98.3504 367.359 103.6 360.625 102.43 354.468C102.43 354.468 83.5004 320.009 73.8904 315.805C73.8904 315.805 84.6604 290.591 91.9504 285.829C99.2404 281.067 92.5604 225.194 92.5604 225.194Z" fill="#263238" stroke="#263238" stroke-width="0.75" stroke-linecap="round" stroke-linejoin="round"/>
<path opacity="0.2" d="M73.8504 315.805C73.8504 315.805 82.2005 296.296 89.1605 288.35C85.6005 279.557 78.9805 264.945 76.1605 269.918C72.1605 276.893 61.7904 312.66 67.7004 317.903C73.6104 323.146 64.0105 323.444 68.4405 330.409C72.2005 336.306 93.3804 355.844 101.64 361.289C102.506 359.118 102.778 356.769 102.43 354.468C102.43 354.468 83.4604 320.009 73.8504 315.805Z" fill="black"/>
<path d="M79.0801 250.976C79.0801 250.976 80.0801 265.406 83.5301 273.641" stroke="#7F7F7F" stroke-width="0.75" stroke-linecap="round" stroke-linejoin="round"/>
<path d="M71.9297 318.653C71.9297 318.653 66.4697 324.29 58.9297 323.53" stroke="#7F7F7F" stroke-width="0.75" stroke-linecap="round" stroke-linejoin="round"/>
<path d="M93.3799 344.117L93.9399 361.193" stroke="#7F7F7F" stroke-width="0.75" stroke-linecap="round" stroke-linejoin="round"/>
<g filter="url(#filter0_d_1327_606)">
<path d="M180.74 374.084C180.74 374.084 193 410.986 195.3 429.235H95.69C95.69 429.235 94.82 385.945 98.6 372.121L180.74 374.084Z" fill="#FFB500"/>
<path d="M180.74 374.084C180.74 374.084 193 410.986 195.3 429.235H95.69C95.69 429.235 94.82 385.945 98.6 372.121L180.74 374.084Z" stroke="#263238" stroke-width="0.75" stroke-linecap="round" stroke-linejoin="round"/>
</g>
<path d="M138.85 419.432C141.09 421.356 145.45 429.196 145.45 429.196" stroke="#263238" stroke-width="0.75" stroke-linecap="round" stroke-linejoin="round"/>
<path d="M117.83 394.535C122.872 401.98 128.534 409.019 134.76 415.584" stroke="#263238" stroke-width="0.75" stroke-linecap="round" stroke-linejoin="round"/>
<path d="M144.91 152.179C144.91 152.179 152.49 145.647 150.74 141.53C148.46 136.171 142.58 144.146 142.58 144.146C142.58 144.146 144.91 135.931 139.93 133.872C134.6 131.679 130.16 141.347 130.16 141.347C130.16 141.347 128.78 133.045 121.22 134.805C114.82 136.306 120.06 143.213 114.82 145.455C109.58 147.696 92.2905 153.487 95.5905 164.695C95.5905 164.695 90.9305 155.912 89.1905 159.461C87.4505 163.011 93.4605 167.869 95.7905 168.427C95.7905 168.427 92.1005 175.902 95.0105 177.961C97.9205 180.019 97.3405 172.545 97.3405 172.545C97.3405 172.545 99.2405 193.131 119.87 203.925C140.5 214.719 139.93 178.913 139.93 178.913L145.11 162.848L144.91 152.179Z" fill="#263238" stroke="#263238" stroke-width="0.75" stroke-linecap="round" stroke-linejoin="round"/>
<path d="M118.64 150.688C109.96 153.304 96.8998 156.46 102.56 173.102" stroke="#7F7F7F" stroke-width="0.75" stroke-linecap="round" stroke-linejoin="round"/>
<path d="M122.39 138.172C122.39 138.172 125.63 144.665 122.24 148.523" stroke="#7F7F7F" stroke-width="0.75" stroke-linecap="round" stroke-linejoin="round"/>
<path d="M112.49 183.376C112.95 184.435 113.49 185.531 114.04 186.667" stroke="#7F7F7F" stroke-width="0.75" stroke-linecap="round" stroke-linejoin="round"/>
<path d="M135.53 144.916C133.724 147.686 131.113 149.887 128.02 151.245C119.02 155.401 104.85 160.182 110.82 178.961" stroke="#7F7F7F" stroke-width="0.75" stroke-linecap="round" stroke-linejoin="round"/>
<path d="M137.92 137.422C137.894 138.699 137.675 139.966 137.27 141.183" stroke="#7F7F7F" stroke-width="0.75" stroke-linecap="round" stroke-linejoin="round"/>
<path d="M122.3 160.211C117.7 163.617 124.3 168.129 127.05 173.843" stroke="#7F7F7F" stroke-width="0.75" stroke-linecap="round" stroke-linejoin="round"/>
<path d="M148 143.405C148 143.405 139.46 154.613 127 158.153" stroke="#7F7F7F" stroke-width="0.75" stroke-linecap="round" stroke-linejoin="round"/>
<path d="M96.5702 374.641C96.5702 374.641 95.9802 354.439 93.0702 323.088C90.1602 291.736 73.8502 228.956 96.5702 223.348C119.29 217.739 164.57 214.218 179.86 228.388C196.76 244.079 183.94 331.496 183.36 346.628C182.78 361.76 185.69 379.124 185.69 379.124C185.69 379.124 125.4 391.736 96.5702 374.641Z" fill="#263238" stroke="#263238" stroke-width="0.75" stroke-linecap="round" stroke-linejoin="round"/>
<path opacity="0.2" d="M183.36 346.628C183.59 340.558 185.79 322.866 187.26 302.838C185.71 293.372 184.26 284.56 183.14 278.153C179 254.026 139.41 252.708 109.4 255.892C94.8404 257.412 89.4004 271.053 87.6504 284.694C89.6504 298.807 92.1004 312.708 93.0704 323.174C95.9804 354.555 96.5704 374.728 96.5704 374.728C125.4 391.823 185.69 379.211 185.69 379.211C185.69 379.211 182.78 361.76 183.36 346.628Z" fill="black"/>
<path d="M143.94 214.94V208.591C143.94 208.591 155.22 210.274 156.77 207.465C158.32 204.656 155.77 193.083 155.77 193.083C155.77 193.083 161.2 193.276 161.2 190.842C161.2 188.408 154.8 178.143 154.8 178.143C154.8 178.143 155.57 169.928 154.8 167.311C154.03 164.695 146.06 149.938 146.06 149.938C146.06 149.938 134.41 156.094 134.8 159.461C135.19 162.828 138.49 166.003 135.8 168.802C133.11 171.602 129.39 179.163 130.55 182.761L128.81 183.935C128.81 183.935 127.81 177.201 123.95 176.085C120.09 174.969 116.95 182.443 119.68 187.629C122.41 192.814 125.51 191.929 125.51 191.929C125.51 191.929 123.95 200.895 119.88 203.886L118.65 213.218L143.94 214.94Z" fill="white" stroke="#263238" stroke-width="0.75" stroke-linecap="round" stroke-linejoin="round"/>
<path d="M151.42 178.326C152.116 178.326 152.68 177.322 152.68 176.084C152.68 174.846 152.116 173.843 151.42 173.843C150.724 173.843 150.16 174.846 150.16 176.084C150.16 177.322 150.724 178.326 151.42 178.326Z" fill="#263238"/>
<path d="M142.78 191.438C142.78 191.438 143.69 193.862 151 194.237" stroke="#263238" stroke-width="0.75" stroke-linecap="round" stroke-linejoin="round"/>
<path d="M151.42 169.745C150.263 169.619 149.096 169.885 148.121 170.498C147.146 171.111 146.424 172.032 146.08 173.102" stroke="#263238" stroke-width="0.75" stroke-linecap="round" stroke-linejoin="round"/>
<path d="M110.93 223.771C110.93 223.771 103.17 213.632 110.93 212.516C118.69 211.4 150.54 208.773 155.59 212.516C160.64 216.258 147.83 215.132 147.05 221.481C146.27 227.831 110.93 223.771 110.93 223.771Z" fill="#263238" stroke="#263238" stroke-width="0.75" stroke-linecap="round" stroke-linejoin="round"/>
<path d="M158.86 177.97C158.86 181.578 157.77 184.492 156.42 184.492C155.07 184.492 153.98 181.606 153.98 177.97C153.98 174.334 155.07 171.448 156.42 171.448C157.77 171.448 158.86 174.334 158.86 177.97Z" stroke="#263238" stroke-width="0.75" stroke-linecap="round" stroke-linejoin="round"/>
<path d="M158.32 173.843L131.48 175.767C129.577 175.893 127.756 176.563 126.25 177.691" stroke="#263238" stroke-linecap="round" stroke-linejoin="round"/>
<path d="M239.3 198.643L245.64 185.06C245.64 185.06 249.34 170.332 252.27 167.128C255.2 163.925 259.96 158.133 261.47 159.74C262.57 160.894 261.21 164.839 258.79 167.869C256.17 171.159 258.3 174.247 259.26 175.565C260.22 176.883 265.93 179.586 270.39 180.144C274.85 180.702 283.74 175.276 286.8 177.181C289.86 179.086 283.62 181.183 283.62 181.183C283.62 181.183 288.43 180.567 289.44 183.165C290.03 184.704 285.09 184.675 282.68 184.906C280.27 185.137 275.38 185.868 275.38 185.868C275.38 185.868 284.16 186.945 284.05 189.254C283.94 191.563 277.46 189.398 272.54 189.581C272.54 189.581 279.6 191.332 279.21 193.554C278.82 195.776 275.09 193.439 269.21 192.458L255.55 190.793L251.24 206.128L239.3 198.643Z" fill="white" stroke="#263238" stroke-width="0.75" stroke-linecap="round" stroke-linejoin="round"/>
<path d="M280.05 181.953C278.513 182.808 276.814 183.36 275.052 183.577C273.29 183.793 271.501 183.669 269.79 183.213C269.79 183.213 270.37 185.031 269.79 185.801C269.21 186.57 269.28 188.109 267.79 189.091C267.045 189.606 266.267 190.075 265.46 190.495" stroke="#263238" stroke-width="0.75" stroke-linecap="round" stroke-linejoin="round"/>
<path d="M158.86 219.894C158.86 219.894 180.36 219.981 188.56 226.426C188.56 226.426 188.56 223.069 195.01 226.426C195.01 226.426 214.52 224.184 223.55 226.426C223.55 226.426 234.62 200.086 241.32 193.083C241.32 193.083 250.93 193.651 253.55 197.845C254.8 199.846 251.85 210.832 249.11 222.02C246.11 234.372 243.04 246.974 240.44 247.994C235.49 249.918 183.36 254.439 183.36 254.439L158.86 242.107V219.894Z" fill="#263238" stroke="#263238" stroke-width="0.75" stroke-linecap="round" stroke-linejoin="round"/>
<path opacity="0.2" d="M253.82 198.923C253.561 198.719 253.262 198.569 252.94 198.48C245.52 196.556 241.86 236.691 236.12 241.424C230.38 246.157 199.33 243.098 191.51 241.53C185.68 240.366 186.91 249.389 187.91 254.036C200.7 252.891 236.39 249.601 240.44 247.994C243.04 246.965 246.08 234.363 249.11 222.02C251.53 212.15 254.1 202.443 253.82 198.923Z" fill="black"/>
<path d="M226.17 227.551C226.17 227.551 230.54 228.388 235.78 235.113" stroke="#7F7F7F" stroke-width="0.75" stroke-linecap="round" stroke-linejoin="round"/>
<path d="M190.93 231.332C192.448 237.74 192.448 244.395 190.93 250.803" stroke="#7F7F7F" stroke-width="0.75" stroke-linecap="round" stroke-linejoin="round"/>
<path d="M172.59 223.771C172.59 223.771 186.59 230.871 187.59 250.803" stroke="#7F7F7F" stroke-width="0.75" stroke-linecap="round" stroke-linejoin="round"/>
<path d="M173.47 353.054C174.427 351.882 175.208 350.587 175.79 349.206" stroke="#7F7F7F" stroke-width="0.75" stroke-linecap="round" stroke-linejoin="round"/>
<path d="M106.66 363.809C106.66 363.809 152.84 369.658 170.37 356.046" stroke="#7F7F7F" stroke-width="0.75" stroke-linecap="round" stroke-linejoin="round"/>
<path d="M316.77 165.041L315.96 160.288C315.89 160.01 315.879 159.721 315.93 159.439C315.981 159.157 316.092 158.888 316.256 158.649C316.42 158.41 316.634 158.206 316.884 158.051C317.133 157.895 317.414 157.79 317.707 157.744C318.001 157.697 318.302 157.71 318.59 157.78C318.879 157.851 319.149 157.978 319.384 158.153C319.619 158.329 319.814 158.55 319.956 158.801C320.098 159.053 320.185 159.33 320.21 159.615L320.37 160.577L319.01 160.789L318.83 159.769C318.73 159.192 318.4 158.999 317.97 159.067C317.54 159.134 317.29 159.413 317.39 160.029L318.23 164.964C318.33 165.55 318.66 165.733 319.09 165.656C319.52 165.579 319.78 165.32 319.68 164.694L319.45 163.347L320.81 163.136L321.03 164.377C321.085 164.649 321.082 164.929 321.022 165.2C320.962 165.471 320.846 165.727 320.681 165.955C320.517 166.182 320.307 166.376 320.063 166.524C319.82 166.672 319.548 166.771 319.264 166.817C318.98 166.863 318.689 166.853 318.409 166.789C318.129 166.725 317.865 166.607 317.632 166.444C317.4 166.28 317.204 166.073 317.056 165.835C316.908 165.598 316.811 165.334 316.77 165.06V165.041Z" fill="#263238"/>
<path d="M321.66 164.214L321.58 163.704L322.94 163.482L323.05 164.098C323.16 164.723 323.48 164.906 323.94 164.829C324.4 164.752 324.65 164.493 324.54 163.867C324.43 163.242 324.05 162.713 322.96 162.068C321.58 161.241 321.06 160.577 320.89 159.567C320.791 159.286 320.761 158.987 320.802 158.693C320.843 158.399 320.954 158.119 321.126 157.873C321.298 157.627 321.527 157.423 321.795 157.276C322.063 157.129 322.363 157.044 322.67 157.027C324.07 156.806 324.9 157.508 325.15 158.951L325.21 159.317L323.85 159.529L323.77 159.076C323.66 158.442 323.35 158.249 322.9 158.316C322.45 158.384 322.21 158.672 322.32 159.278C322.43 159.885 322.81 160.346 323.89 160.991C324.433 161.217 324.909 161.567 325.277 162.012C325.645 162.456 325.893 162.981 326 163.54C326.095 163.826 326.121 164.128 326.077 164.425C326.033 164.721 325.921 165.005 325.748 165.254C325.575 165.504 325.347 165.712 325.079 165.865C324.811 166.018 324.511 166.111 324.2 166.138C322.75 166.32 321.91 165.628 321.66 164.214Z" fill="#263238"/>
<path d="M326.55 163.434L326.46 162.924L327.83 162.713L327.93 163.319C328.04 163.954 328.37 164.127 328.83 164.06C329.29 163.992 329.54 163.713 329.43 163.098C329.32 162.482 328.93 161.943 327.85 161.299C326.47 160.462 325.95 159.808 325.78 158.797C325.681 158.517 325.651 158.219 325.691 157.926C325.731 157.633 325.841 157.352 326.013 157.107C326.184 156.861 326.412 156.657 326.678 156.509C326.945 156.362 327.243 156.276 327.55 156.258C328.96 156.036 329.79 156.729 330.03 158.182L330.1 158.547L328.73 158.769L328.65 158.316C328.55 157.682 328.24 157.479 327.78 157.556C327.32 157.633 327.1 157.912 327.2 158.518C327.3 159.125 327.7 159.577 328.78 160.221C329.318 160.456 329.787 160.814 330.148 161.263C330.509 161.712 330.75 162.24 330.85 162.799C330.948 163.084 330.978 163.387 330.936 163.684C330.895 163.982 330.784 164.266 330.611 164.516C330.439 164.767 330.21 164.976 329.941 165.128C329.672 165.281 329.371 165.373 329.06 165.397C327.64 165.541 326.79 164.848 326.55 163.434Z" fill="#263238"/>
<path d="M163.05 273.93C163.05 273.93 139.94 280.346 140.86 296.883C141.78 313.42 146.22 312.477 136.42 317.931C126.62 323.386 135.87 333.708 133.09 338.335C130.31 342.963 112.75 355.767 120.34 362.385C127.93 369.004 166.01 355.805 179.34 362.385C192.67 368.966 203.17 355.007 206.7 351.39C210.23 347.773 199.87 342.645 200.24 335.353C200.61 328.061 207.24 287.763 198.76 282.386C190.28 277.008 170.4 270.986 163.05 273.93Z" fill="#263238" stroke="#263238" stroke-width="0.75" stroke-linecap="round" stroke-linejoin="round"/>
<path d="M245.31 300.625L249.55 285.81C249.55 285.81 251.21 275.671 252.55 273.67C254.025 271.893 255.702 270.279 257.55 268.86C258.863 267.088 260.343 265.436 261.97 263.925C263.79 262.453 274.47 257.114 275.3 257.518C276.13 257.922 277.45 260.317 270.52 264.059C272.853 263.939 275.189 264.266 277.39 265.021C280.44 266.214 282.52 266.551 281.2 267.821C279.88 269.091 278.77 269.687 273.85 268.417C271.779 268.648 269.692 268.716 267.61 268.619L266.08 270.351C266.742 270.074 267.486 270.037 268.175 270.245C268.864 270.454 269.451 270.894 269.83 271.486C271.21 273.622 272.83 276.296 272.11 277.826C272.11 277.826 277.45 275.161 278.91 277.354C280.37 279.548 275.86 281.558 274.06 282.895C272.26 284.233 267.88 287.83 267.88 287.83C267.88 287.83 264.76 294.564 258.25 297.037C257.433 298.724 257.188 300.615 257.55 302.443L245.31 300.625Z" fill="white" stroke="#263238" stroke-width="0.75" stroke-linecap="round" stroke-linejoin="round"/>
<path d="M267.16 265.868L264.87 267.667L262.31 271.938L260.57 277.537" stroke="#263238" stroke-width="0.75" stroke-linecap="round" stroke-linejoin="round"/>
<path d="M259.12 277.537C259.12 277.537 262.75 281.741 265.34 282.347C266.474 281.892 267.571 281.355 268.62 280.741C269.08 280.356 269.77 279.605 271.18 278.518" stroke="#263238" stroke-width="0.75" stroke-linecap="round" stroke-linejoin="round"/>
<path d="M263.14 277.21L263.47 276.075C264.551 276.296 265.668 276.296 266.75 276.075L267.58 277.21C266.107 277.003 264.612 277.003 263.14 277.21Z" stroke="#263238" stroke-width="0.75" stroke-linecap="round" stroke-linejoin="round"/>
<path d="M266.82 272.467C266.398 273.372 266.229 274.367 266.33 275.353" stroke="#263238" stroke-width="0.75" stroke-linecap="round" stroke-linejoin="round"/>
<path d="M269 276.094C268.146 276.799 267.481 277.691 267.061 278.696C266.642 279.701 266.48 280.788 266.59 281.866" stroke="#263238" stroke-width="0.75" stroke-linecap="round" stroke-linejoin="round"/>
<path d="M264.67 271.399L263.14 273.006V274.805" stroke="#263238" stroke-width="0.75" stroke-linecap="round" stroke-linejoin="round"/>
<path d="M192.24 346.868C192.24 346.868 227.12 347.724 232.13 351.274C232.13 351.274 229 346.464 234.63 348.003C234.63 348.003 235.02 306.811 242.63 306.253L245.15 296.883C245.194 296.719 245.276 296.568 245.391 296.44C245.506 296.313 245.651 296.214 245.814 296.15C245.976 296.086 246.152 296.06 246.327 296.074C246.502 296.088 246.671 296.141 246.82 296.229C248.91 297.47 253.24 299.711 257.27 299.759C257.563 299.764 257.842 299.88 258.046 300.082C258.25 300.284 258.363 300.555 258.36 300.837V308.869C258.36 308.869 262.24 309.831 262.04 315.218C261.84 320.606 258.3 369.225 251.89 374.487C245.48 379.749 200.4 377.104 200.4 377.104C200.4 377.104 189.33 366.849 192.24 346.868Z" fill="#FFA500" stroke="#263238" stroke-width="0.75" stroke-linecap="round" stroke-linejoin="round"/>
<path opacity="0.2" d="M260.57 333.208C256.3 363.54 247.93 359.971 245.31 362.376C242.69 364.781 247.65 370.909 230.73 372.448C213.81 373.987 203.1 357.7 203.1 357.7L194.45 367.705C195.783 371.195 197.823 374.396 200.45 377.123C200.45 377.123 245.45 379.74 251.9 374.487C256.06 371.072 259.01 349.475 260.62 333.198L260.57 333.208Z" fill="black"/>
<path d="M236.12 355.834C236.12 355.834 238.65 357.7 240.2 363.53" stroke="#263238" stroke-width="0.75" stroke-linecap="round" stroke-linejoin="round"/>
<path d="M238.16 351.351C241.378 352.838 244.202 355.009 246.42 357.7" stroke="#263238" stroke-width="0.75" stroke-linecap="round" stroke-linejoin="round"/>
<path d="M245.31 307.561C245.31 307.561 248.61 309.803 255.21 310.553" stroke="#263238" stroke-width="0.75" stroke-linecap="round" stroke-linejoin="round"/>
<path d="M129 429.235C129 429.235 102 374.449 122.71 357.018C143.42 339.586 187.06 344.204 194.46 346.339C201.86 348.475 209.25 369.11 209.62 380.144C209.99 391.178 217.26 391.015 206.91 429.206L129 429.235Z" fill="#FFA500" stroke="#263238" stroke-width="0.75" stroke-linecap="round" stroke-linejoin="round"/>
<path opacity="0.2" d="M129 429.235H206.91C207.463 427.195 207.967 425.271 208.42 423.463C204.14 421.625 200.24 419.451 194.42 418.98C184.48 418.181 171.9 426.454 154.15 418.98C136.4 411.505 153.59 383.492 152.67 378.643C151.75 373.795 137.78 388.513 137.78 388.513L119.17 403.617C121.778 412.38 125.064 420.943 129 429.235Z" fill="black"/>
<path d="M155.66 393.833L172.11 388.648C172.11 388.648 178.95 378.172 182.47 375.507C185.99 372.842 188.2 371.948 191.71 373.583L197.63 372.794C197.63 372.794 200.13 369.735 202.99 370.389C205.85 371.043 216.31 374.122 215.2 376.257C214.09 378.393 205.2 374.478 203.92 375.545C203.92 375.545 206.83 380.567 206.83 383.636C206.83 386.705 207.66 391.38 205.83 391.38C204 391.38 202.5 389.456 202.64 386.935C202.64 386.935 202.09 392.448 200.28 392.178C198.47 391.909 197.23 390.437 197.51 388.176C197.51 388.176 193.35 400.586 182.81 400.452L163.7 407.888C163.7 407.888 159.82 407.003 155.66 393.833Z" fill="white" stroke="#263238" stroke-width="0.75" stroke-linecap="round" stroke-linejoin="round"/>
<path d="M186.58 388.148C186.58 388.148 189.08 383.338 188.39 381.077L191.99 379.74C191.99 379.74 193.52 381.741 194.63 381.212L194.07 383.944C194.07 383.944 191.3 387.214 192.82 389.081C194.34 390.947 196.57 386.676 197.82 385.473C199.07 384.271 199.34 378.98 198.37 377.296C197.4 375.613 193.82 375.786 192.77 374.67" stroke="#263238" stroke-width="0.75" stroke-linecap="round" stroke-linejoin="round"/>
<path d="M198 373.554C198 373.554 201.15 373.198 202.07 374.67C203.18 376.753 203.749 379.064 203.73 381.404C203.534 382.899 203.257 384.382 202.9 385.849" stroke="#263238" stroke-width="0.75" stroke-linecap="round" stroke-linejoin="round"/>
<path d="M198 386.907L198.56 383.944" stroke="#263238" stroke-width="0.75" stroke-linecap="round" stroke-linejoin="round"/>
<path d="M200.88 373.824C200.88 373.824 202.67 373.064 203.88 375.517" stroke="#263238" stroke-width="0.75" stroke-linecap="round" stroke-linejoin="round"/>
<path d="M194.35 382.549L192.77 383.164L193.56 384.627L194.07 383.944L194.35 382.549Z" stroke="#263238" stroke-width="0.75" stroke-linecap="round" stroke-linejoin="round"/>
<path d="M177.11 395.796C177.11 395.796 177.85 397.576 181.17 399.355" stroke="#263238" stroke-width="0.75" stroke-linecap="round" stroke-linejoin="round"/>
<path d="M163.24 325.349L157.87 340.471C157.87 340.471 169.34 352.208 179.32 353.102L183.39 357.701L187.83 352.563L186.72 345.983L184.93 343.203L183.39 342.722L186.54 334.42L176.5 321.308H166.75L163.24 325.349Z" fill="white"/>
<path d="M186.54 334.42L176.5 321.308H166.75L165.61 322.636C166.28 325.637 167.7 330.755 170.08 333.756C172.61 336.96 179.73 340.615 183.53 342.414L186.54 334.42Z" fill="#263238" stroke="#263238" stroke-width="0.75" stroke-linecap="round" stroke-linejoin="round"/>
<path d="M163.24 325.349L157.87 340.471C157.87 340.471 169.34 352.208 179.32 353.102L183.39 357.701L187.83 352.563L186.72 345.983L184.93 343.203L183.39 342.722L186.54 334.42L176.5 321.308H166.75L163.24 325.349Z" stroke="#263238" stroke-width="0.75" stroke-linecap="round" stroke-linejoin="round"/>
<path d="M166 317.931C166 317.931 167.85 328.908 172.84 332.467C177.83 336.027 195.77 342.578 199.1 339.48C202.43 336.383 205.76 326.416 206.5 321.26C207.24 316.104 205.39 307.6 205.76 302.424C206.13 297.248 206.5 288.523 199.1 285.858C191.7 283.194 164.7 296.065 164.7 296.065L163.05 305.916L166 317.931Z" fill="white" stroke="#263238" stroke-width="0.75" stroke-linecap="round" stroke-linejoin="round"/>
<path d="M200.87 302.424C200.87 302.424 199.76 306.762 200.87 308.359C201.62 309.446 203.58 312.053 204.77 313.631C204.892 313.795 204.98 313.98 205.027 314.177C205.074 314.373 205.08 314.577 205.045 314.776C205.01 314.974 204.933 315.164 204.821 315.334C204.709 315.505 204.562 315.652 204.39 315.767C202.97 316.729 200.85 318.297 200.39 319.297C200.313 319.74 200.313 320.192 200.39 320.634" stroke="#263238" stroke-width="0.75" stroke-linecap="round" stroke-linejoin="round"/>
<path d="M200.48 323.328C200.48 323.328 195.48 327.176 190.48 322.26" stroke="#263238" stroke-width="0.75" stroke-linecap="round" stroke-linejoin="round"/>
<path d="M186.54 304.088C186.54 304.088 188.73 299.422 196.46 301.818" stroke="#263238" stroke-width="0.75" stroke-linecap="round" stroke-linejoin="round"/>
<path d="M201.17 301.106C201.683 300.616 202.377 300.341 203.1 300.341C203.823 300.341 204.517 300.616 205.03 301.106" stroke="#263238" stroke-width="0.75" stroke-linecap="round" stroke-linejoin="round"/>
<path d="M194.41 305.839C194.72 306.945 194.51 307.955 193.94 308.109C193.37 308.263 192.65 307.474 192.35 306.368C192.05 305.262 192.25 304.252 192.82 304.107C193.39 303.963 194.1 304.733 194.41 305.839Z" fill="#263238"/>
<path d="M204.93 304.713C205.15 305.723 204.93 306.637 204.39 306.724C203.85 306.81 203.27 306.108 203.05 305.098C202.83 304.088 203.05 303.174 203.58 303.078C204.11 302.982 204.7 303.703 204.93 304.713Z" fill="#263238"/>
<path d="M191.75 273.102C191.75 273.102 201.17 267.908 215.33 279.961C228.13 290.851 212.49 284.608 212.49 284.608C212.49 284.608 218.99 296.296 212.06 298.701C205.13 301.106 208.91 294.036 193.38 290.659C193.38 290.659 200.31 296.065 195.56 299.221C189.46 303.271 185.43 296.335 180.62 297.951C180.62 297.951 178.03 311.65 172.85 313.968C172.85 313.968 167.85 332.323 161.18 331.149C154.51 329.976 162.68 327.484 158.98 316.277C155.28 305.07 147.33 294.488 153.44 282.347C159.55 270.207 181.44 268.889 191.75 273.102Z" fill="#263238" stroke="#263238" stroke-width="0.75" stroke-linecap="round" stroke-linejoin="round"/>
<path d="M132.72 354.016C127.5 354.093 122.72 355.94 120.52 359.192C112.28 371.015 102.03 392.987 95.3702 407.571C88.7102 422.155 92.0002 430.976 95.3702 432.082C98.7402 433.189 110.53 436.71 133.46 426.041C156.39 415.372 154.18 413.227 154.18 413.227L167.33 407.388C167.449 407.336 167.552 407.255 167.628 407.153C167.703 407.05 167.75 406.931 167.762 406.806C167.774 406.681 167.752 406.555 167.697 406.441C167.642 406.327 167.557 406.229 167.45 406.157C165.36 404.714 161.14 400.635 160.85 391.149C160.846 391.036 160.814 390.925 160.757 390.826C160.7 390.727 160.62 390.642 160.522 390.579C160.425 390.515 160.313 390.474 160.197 390.46C160.08 390.445 159.961 390.457 159.85 390.495L147.54 395.305C147.54 395.305 145.69 393.381 134.96 397.229C134.96 397.229 145.69 389.754 150.5 384.059C152.76 381.385 153.5 376.363 152.69 371.226" fill="#FFA500"/>
<path d="M132.72 354.016C127.5 354.093 122.72 355.94 120.52 359.192C112.28 371.015 102.03 392.987 95.3702 407.571C88.7102 422.155 92.0002 430.976 95.3702 432.082C98.7402 433.189 110.53 436.71 133.46 426.041C156.39 415.372 154.18 413.227 154.18 413.227L167.33 407.388C167.449 407.336 167.552 407.255 167.628 407.153C167.703 407.05 167.75 406.931 167.762 406.806C167.774 406.681 167.752 406.555 167.697 406.441C167.642 406.327 167.557 406.229 167.45 406.157C165.36 404.714 161.14 400.635 160.85 391.149C160.846 391.036 160.814 390.925 160.757 390.826C160.7 390.727 160.62 390.642 160.522 390.579C160.425 390.515 160.313 390.474 160.197 390.46C160.08 390.445 159.961 390.457 159.85 390.495L147.54 395.305C147.54 395.305 145.69 393.381 134.96 397.229C134.96 397.229 145.69 389.754 150.5 384.059C152.76 381.385 153.5 376.363 152.69 371.226" stroke="#263238" stroke-width="0.75" stroke-linecap="round" stroke-linejoin="round"/>
<path d="M112.57 404.511C116.12 401.683 131.06 400.24 131.25 398.104C131.44 395.969 118.67 401.135 118.86 398.104" stroke="#263238" stroke-width="0.75" stroke-linecap="round" stroke-linejoin="round"/>
<path d="M142.53 376.229C142.53 376.229 146.23 381.904 146.22 385.117C146.21 388.33 150.66 379.961 150.66 376.229" stroke="#263238" stroke-width="0.75" stroke-linecap="round" stroke-linejoin="round"/>
<path d="M148.26 397.575C148.26 397.575 147.89 401.846 151.96 408.956" stroke="#263238" stroke-width="0.75" stroke-linecap="round" stroke-linejoin="round"/>
<path d="M146 346.147C146 346.147 149.8 335.334 154.24 336.921C158.68 338.509 180.31 347.503 183.36 357.7C183.36 357.7 178.92 352.073 175.04 357.7C171.16 363.328 167.47 358.326 146 346.147Z" fill="#FFA500" stroke="#263238" stroke-width="0.75" stroke-linecap="round" stroke-linejoin="round"/>
<path d="M184.93 343.203C186.138 348.064 185.595 353.175 183.39 357.7C183.39 357.7 186.72 353.593 190.6 356.392C194.48 359.191 190.6 347.494 188.8 345.281C187.744 344.381 186.587 343.596 185.35 342.943C185.307 342.908 185.254 342.886 185.198 342.882C185.142 342.879 185.086 342.892 185.038 342.922C184.991 342.951 184.955 342.994 184.935 343.045C184.916 343.096 184.914 343.151 184.93 343.203Z" fill="#FFA500" stroke="#263238" stroke-width="0.75" stroke-linecap="round" stroke-linejoin="round"/>
<path d="M183.39 342.722C183.39 342.722 182.24 346.262 183.39 348.379" stroke="#263238" stroke-width="0.75" stroke-linecap="round" stroke-linejoin="round"/>
<path d="M169.08 430.129H213.9V434.045H169.44C168.994 434.045 168.567 433.874 168.252 433.571C167.937 433.268 167.76 432.857 167.76 432.429V431.399C167.76 431.062 167.899 430.739 168.146 430.501C168.394 430.263 168.73 430.129 169.08 430.129Z" fill="#858585" stroke="#263238" stroke-linecap="round" stroke-linejoin="round"/>
<path d="M235.5 365.368H229.87C229.008 365.372 228.171 365.644 227.482 366.143C226.794 366.642 226.292 367.342 226.05 368.138L207.62 429.139C207.452 429.709 207.424 430.308 207.536 430.891C207.649 431.474 207.9 432.023 208.27 432.497C208.639 432.971 209.118 433.356 209.668 433.623C210.218 433.89 210.824 434.031 211.44 434.035H216.33L235.5 365.368Z" fill="#263238" stroke="#263238" stroke-width="0.75" stroke-linecap="round" stroke-linejoin="round"/>
<path d="M307.32 434.035H213.39C212.773 434.032 212.165 433.893 211.614 433.626C211.063 433.36 210.583 432.975 210.212 432.501C209.841 432.027 209.589 431.477 209.476 430.893C209.363 430.31 209.392 429.71 209.56 429.139L228 368.138C228.241 367.341 228.745 366.64 229.436 366.14C230.126 365.641 230.966 365.37 231.83 365.368H325.76C326.377 365.371 326.984 365.513 327.535 365.78C328.086 366.047 328.565 366.434 328.935 366.909C329.305 367.384 329.556 367.935 329.668 368.519C329.779 369.102 329.749 369.703 329.58 370.274L311.15 431.274C310.906 432.07 310.401 432.769 309.711 433.267C309.021 433.764 308.182 434.034 307.32 434.035Z" fill="#858585" stroke="#263238" stroke-linecap="round" stroke-linejoin="round"/>
<path d="M165.61 322.588C165.61 322.588 158.06 333.93 162.5 344.146C166.94 354.362 163.05 359.663 157.87 355.834C152.69 352.006 150.29 347.802 126.99 351.351L142.53 336.758L153.07 323.165L162.94 318.701L165.61 322.588Z" fill="#263238" stroke="#263238" stroke-width="0.75" stroke-linecap="round" stroke-linejoin="round"/>
<path d="M211.55 290.659C212.182 291.689 212.504 292.868 212.48 294.064" stroke="#7F7F7F" stroke-width="0.75" stroke-linecap="round" stroke-linejoin="round"/>
<path d="M181.17 278.98C195.17 278.759 203.98 282.828 208.57 287.041" stroke="#7F7F7F" stroke-width="0.75" stroke-linecap="round" stroke-linejoin="round"/>
<path d="M141.87 337.018C142.579 334.513 142.803 331.904 142.53 329.322C141.42 317.316 151.4 321.395 153.62 306.147C155.62 292.342 158.02 281.568 175.25 279.375" stroke="#7F7F7F" stroke-width="0.75" stroke-linecap="round" stroke-linejoin="round"/>
<path d="M135.59 345.55C137.122 344.625 138.437 343.403 139.45 341.962" stroke="#7F7F7F" stroke-width="0.75" stroke-linecap="round" stroke-linejoin="round"/>
<path d="M155.39 345.031C155.821 346.183 156.342 347.302 156.95 348.379" stroke="#7F7F7F" stroke-width="0.75" stroke-linecap="round" stroke-linejoin="round"/>
<path d="M167.74 288.821C160.93 294.593 166.94 305.897 163.74 312.871C160.74 319.336 152.74 328.792 154.18 340.077" stroke="#7F7F7F" stroke-width="0.75" stroke-linecap="round" stroke-linejoin="round"/>
<path d="M193.38 295.267C193.38 295.267 183.99 282.183 171.51 286.724" stroke="#7F7F7F" stroke-width="0.75" stroke-linecap="round" stroke-linejoin="round"/>
<path d="M394.38 259.336H276.86C274.419 259.336 272.44 261.24 272.44 263.588V272.535C272.44 274.883 274.419 276.787 276.86 276.787H394.38C396.822 276.787 398.8 274.883 398.8 272.535V263.588C398.8 261.24 396.822 259.336 394.38 259.336Z" fill="white"/>
<path opacity="0.3" d="M394.38 259.336H276.86C274.419 259.336 272.44 261.24 272.44 263.588V272.535C272.44 274.883 274.419 276.787 276.86 276.787H394.38C396.822 276.787 398.8 274.883 398.8 272.535V263.588C398.8 261.24 396.822 259.336 394.38 259.336Z" fill="black"/>
<path d="M394.38 259.336H276.86C274.419 259.336 272.44 261.24 272.44 263.588V272.535C272.44 274.883 274.419 276.787 276.86 276.787H394.38C396.822 276.787 398.8 274.883 398.8 272.535V263.588C398.8 261.24 396.822 259.336 394.38 259.336Z" stroke="#263238" stroke-width="0.75" stroke-linecap="round" stroke-linejoin="round"/>
<path d="M326.78 263.174H328.94C330.4 263.174 331.12 263.954 331.12 265.387V266.272C331.12 267.705 330.4 268.494 328.94 268.494H328.24V272.14H326.78V263.174ZM328.94 267.215C329.4 267.215 329.65 267.003 329.65 266.368V265.3C329.65 264.665 329.4 264.454 328.94 264.454H328.24V267.215H328.94Z" fill="#263238"/>
<path d="M331.92 263.174H333.38V266.82H335V263.174H336.47V272.14H335V268.109H333.43V272.14H331.97L331.92 263.174Z" fill="#263238"/>
<path d="M337.51 263.174H339.67C341.13 263.174 341.85 263.954 341.85 265.387V266.272C341.85 267.705 341.13 268.494 339.67 268.494H339V272.14H337.53L337.51 263.174ZM339.67 267.215C340.13 267.215 340.39 267.003 340.39 266.368V265.3C340.39 264.665 340.13 264.454 339.67 264.454H339V267.215H339.67Z" fill="#263238"/>
<defs>
<filter id="filter0_d_1327_606" x="91.2285" y="371.746" width="108.446" height="65.8638" filterUnits="userSpaceOnUse" color-interpolation-filters="sRGB">
<feFlood flood-opacity="0" result="BackgroundImageFix"/>
<feColorMatrix in="SourceAlpha" type="matrix" values="0 0 0 0 0 0 0 0 0 0 0 0 0 0 0 0 0 0 127 0" result="hardAlpha"/>
<feOffset dy="4"/>
<feGaussianBlur stdDeviation="2"/>
<feComposite in2="hardAlpha" operator="out"/>
<feColorMatrix type="matrix" values="0 0 0 0 0 0 0 0 0 0 0 0 0 0 0 0 0 0 0.25 0"/>
<feBlend mode="normal" in2="BackgroundImageFix" result="effect1_dropShadow_1327_606"/>
<feBlend mode="normal" in="SourceGraphic" in2="effect1_dropShadow_1327_606" result="shape"/>
</filter>
</defs>
</svg>
